<svg xmlns="http://www.w3.org/2000/svg" viewBox="0 0 550 1056">
<rect width="550" height="1056" fill="#f4f6fb"/>
<text x="275" y="24" text-anchor="middle" font-size="15" font-weight="700" font-family="system-ui,sans-serif" fill="#1a2a40">Totem Keymap — rcarmo/zmk-config-totem</text>
<rect x="4" y="32" width="542" height="236" rx="8" fill="#e8f0fe" stroke="#c8d0e0" stroke-width="1"/>
<rect x="4" y="32" width="72" height="20" rx="4" fill="#3858a0"/>
<text x="40" y="46" text-anchor="middle" font-size="11" font-weight="700" font-family="system-ui,sans-serif" fill="#ffffff">Base</text>
<rect x="55" y="84" width="34" height="34" rx="4" fill="#ffffff" stroke="#c8d0e0" stroke-width="1.2"/><text x="72" y="102" text-anchor="middle" dominant-baseline="middle" font-size="13" font-family="ui-monospace,monospace" fill="#1a2a40">Q</text>
<rect x="93" y="80" width="34" height="34" rx="4" fill="#ffffff" stroke="#c8d0e0" stroke-width="1.2"/><text x="110" y="98" text-anchor="middle" dominant-baseline="middle" font-size="13" font-family="ui-monospace,monospace" fill="#1a2a40">W</text>
<rect x="131" y="76" width="34" height="34" rx="4" fill="#ffffff" stroke="#c8d0e0" stroke-width="1.2"/><text x="148" y="94" text-anchor="middle" dominant-baseline="middle" font-size="13" font-family="ui-monospace,monospace" fill="#1a2a40">E</text>
<rect x="169" y="80" width="34" height="34" rx="4" fill="#ffffff" stroke="#c8d0e0" stroke-width="1.2"/><text x="186" y="98" text-anchor="middle" dominant-baseline="middle" font-size="13" font-family="ui-monospace,monospace" fill="#1a2a40">R</text>
<rect x="207" y="84" width="34" height="34" rx="4" fill="#ffffff" stroke="#c8d0e0" stroke-width="1.2"/><text x="224" y="102" text-anchor="middle" dominant-baseline="middle" font-size="13" font-family="ui-monospace,monospace" fill="#1a2a40">T</text>
<rect x="271" y="84" width="34" height="34" rx="4" fill="#ffffff" stroke="#c8d0e0" stroke-width="1.2"/><text x="288" y="102" text-anchor="middle" dominant-baseline="middle" font-size="13" font-family="ui-monospace,monospace" fill="#1a2a40">Y</text>
<rect x="309" y="80" width="34" height="34" rx="4" fill="#ffffff" stroke="#c8d0e0" stroke-width="1.2"/><text x="326" y="98" text-anchor="middle" dominant-baseline="middle" font-size="13" font-family="ui-monospace,monospace" fill="#1a2a40">U</text>
<rect x="347" y="76" width="34" height="34" rx="4" fill="#ffffff" stroke="#c8d0e0" stroke-width="1.2"/><text x="364" y="94" text-anchor="middle" dominant-baseline="middle" font-size="13" font-family="ui-monospace,monospace" fill="#1a2a40">I</text>
<rect x="385" y="80" width="34" height="34" rx="4" fill="#ffffff" stroke="#c8d0e0" stroke-width="1.2"/><text x="402" y="98" text-anchor="middle" dominant-baseline="middle" font-size="13" font-family="ui-monospace,monospace" fill="#1a2a40">O</text>
<rect x="423" y="84" width="34" height="34" rx="4" fill="#ffffff" stroke="#c8d0e0" stroke-width="1.2"/><text x="440" y="102" text-anchor="middle" dominant-baseline="middle" font-size="13" font-family="ui-monospace,monospace" fill="#1a2a40">P</text>
<rect x="55" y="122" width="34" height="34" rx="4" fill="#ffffff" stroke="#c8d0e0" stroke-width="1.2"/><text x="72" y="140" text-anchor="middle" dominant-baseline="middle" font-size="13" font-family="ui-monospace,monospace" fill="#1a2a40">A</text>
<rect x="93" y="118" width="34" height="34" rx="4" fill="#ffffff" stroke="#c8d0e0" stroke-width="1.2"/><text x="110" y="136" text-anchor="middle" dominant-baseline="middle" font-size="13" font-family="ui-monospace,monospace" fill="#1a2a40">S</text>
<rect x="131" y="114" width="34" height="34" rx="4" fill="#ffffff" stroke="#c8d0e0" stroke-width="1.2"/><text x="148" y="132" text-anchor="middle" dominant-baseline="middle" font-size="13" font-family="ui-monospace,monospace" fill="#1a2a40">D</text>
<rect x="169" y="118" width="34" height="34" rx="4" fill="#ffffff" stroke="#c8d0e0" stroke-width="1.2"/><text x="186" y="136" text-anchor="middle" dominant-baseline="middle" font-size="13" font-family="ui-monospace,monospace" fill="#1a2a40">F</text>
<rect x="207" y="122" width="34" height="34" rx="4" fill="#ffffff" stroke="#c8d0e0" stroke-width="1.2"/><text x="224" y="140" text-anchor="middle" dominant-baseline="middle" font-size="13" font-family="ui-monospace,monospace" fill="#1a2a40">G</text>
<rect x="271" y="122" width="34" height="34" rx="4" fill="#ffffff" stroke="#c8d0e0" stroke-width="1.2"/><text x="288" y="140" text-anchor="middle" dominant-baseline="middle" font-size="13" font-family="ui-monospace,monospace" fill="#1a2a40">H</text>
<rect x="309" y="118" width="34" height="34" rx="4" fill="#ffffff" stroke="#c8d0e0" stroke-width="1.2"/><text x="326" y="136" text-anchor="middle" dominant-baseline="middle" font-size="13" font-family="ui-monospace,monospace" fill="#1a2a40">J</text>
<rect x="347" y="114" width="34" height="34" rx="4" fill="#ffffff" stroke="#c8d0e0" stroke-width="1.2"/><text x="364" y="132" text-anchor="middle" dominant-baseline="middle" font-size="13" font-family="ui-monospace,monospace" fill="#1a2a40">K</text>
<rect x="385" y="118" width="34" height="34" rx="4" fill="#ffffff" stroke="#c8d0e0" stroke-width="1.2"/><text x="402" y="136" text-anchor="middle" dominant-baseline="middle" font-size="13" font-family="ui-monospace,monospace" fill="#1a2a40">L</text>
<rect x="423" y="122" width="34" height="34" rx="4" fill="#ffffff" stroke="#c8d0e0" stroke-width="1.2"/><text x="440" y="140" text-anchor="middle" dominant-baseline="middle" font-size="13" font-family="ui-monospace,monospace" fill="#1a2a40">;</text>
<rect x="17" y="160" width="34" height="34" rx="4" fill="#ffffff" stroke="#c8d0e0" stroke-width="1.2"/><text x="34" y="178" text-anchor="middle" dominant-baseline="middle" font-size="13" font-family="ui-monospace,monospace" fill="#1a2a40">Esc</text>
<rect x="55" y="160" width="34" height="34" rx="4" fill="#ffffff" stroke="#c8d0e0" stroke-width="1.2"/><text x="72" y="178" text-anchor="middle" dominant-baseline="middle" font-size="13" font-family="ui-monospace,monospace" fill="#1a2a40">Z</text>
<rect x="93" y="156" width="34" height="34" rx="4" fill="#ffffff" stroke="#c8d0e0" stroke-width="1.2"/><text x="110" y="174" text-anchor="middle" dominant-baseline="middle" font-size="13" font-family="ui-monospace,monospace" fill="#1a2a40">X</text>
<rect x="131" y="152" width="34" height="34" rx="4" fill="#ffffff" stroke="#c8d0e0" stroke-width="1.2"/><text x="148" y="170" text-anchor="middle" dominant-baseline="middle" font-size="13" font-family="ui-monospace,monospace" fill="#1a2a40">C</text>
<rect x="169" y="156" width="34" height="34" rx="4" fill="#ffffff" stroke="#c8d0e0" stroke-width="1.2"/><text x="186" y="174" text-anchor="middle" dominant-baseline="middle" font-size="13" font-family="ui-monospace,monospace" fill="#1a2a40">V</text>
<rect x="207" y="160" width="34" height="34" rx="4" fill="#ffffff" stroke="#c8d0e0" stroke-width="1.2"/><text x="224" y="178" text-anchor="middle" dominant-baseline="middle" font-size="13" font-family="ui-monospace,monospace" fill="#1a2a40">B</text>
<rect x="271" y="160" width="34" height="34" rx="4" fill="#ffffff" stroke="#c8d0e0" stroke-width="1.2"/><text x="288" y="178" text-anchor="middle" dominant-baseline="middle" font-size="13" font-family="ui-monospace,monospace" fill="#1a2a40">N</text>
<rect x="309" y="156" width="34" height="34" rx="4" fill="#ffffff" stroke="#c8d0e0" stroke-width="1.2"/><text x="326" y="174" text-anchor="middle" dominant-baseline="middle" font-size="13" font-family="ui-monospace,monospace" fill="#1a2a40">M</text>
<rect x="347" y="152" width="34" height="34" rx="4" fill="#ffffff" stroke="#c8d0e0" stroke-width="1.2"/><text x="364" y="170" text-anchor="middle" dominant-baseline="middle" font-size="13" font-family="ui-monospace,monospace" fill="#1a2a40">,</text>
<rect x="385" y="156" width="34" height="34" rx="4" fill="#ffffff" stroke="#c8d0e0" stroke-width="1.2"/><text x="402" y="174" text-anchor="middle" dominant-baseline="middle" font-size="13" font-family="ui-monospace,monospace" fill="#1a2a40">.</text>
<rect x="423" y="160" width="34" height="34" rx="4" fill="#ffffff" stroke="#c8d0e0" stroke-width="1.2"/><text x="440" y="178" text-anchor="middle" dominant-baseline="middle" font-size="13" font-family="ui-monospace,monospace" fill="#1a2a40">/</text>
<rect x="461" y="160" width="34" height="34" rx="4" fill="#ffffff" stroke="#c8d0e0" stroke-width="1.2"/><text x="478" y="178" text-anchor="middle" dominant-baseline="middle" font-size="13" font-family="ui-monospace,monospace" fill="#1a2a40">'</text>
<rect x="127" y="214" width="34" height="34" rx="4" fill="#ffffff" stroke="#c8d0e0" stroke-width="1.2"/><text x="144" y="232" text-anchor="middle" dominant-baseline="middle" font-size="13" font-family="ui-monospace,monospace" fill="#1a2a40">⌫</text>
<rect x="165" y="208" width="34" height="34" rx="4" fill="#d0e4ff" stroke="#c8d0e0" stroke-width="1.2"/><text x="182" y="226" text-anchor="middle" dominant-baseline="middle" font-size="13" font-family="ui-monospace,monospace" fill="#1a2a40">Sym</text>
<rect x="203" y="214" width="34" height="34" rx="4" fill="#ffecd0" stroke="#c8d0e0" stroke-width="1.2"/><text x="220" y="232" text-anchor="middle" dominant-baseline="middle" font-size="13" font-family="ui-monospace,monospace" fill="#1a2a40">⇧</text>
<rect x="267" y="214" width="34" height="34" rx="4" fill="#ffffff" stroke="#c8d0e0" stroke-width="1.2"/><text x="284" y="232" text-anchor="middle" dominant-baseline="middle" font-size="11" font-family="ui-monospace,monospace" fill="#1a2a40">Space</text>
<rect x="305" y="208" width="34" height="34" rx="4" fill="#d0e4ff" stroke="#c8d0e0" stroke-width="1.2"/><text x="322" y="226" text-anchor="middle" dominant-baseline="middle" font-size="13" font-family="ui-monospace,monospace" fill="#1a2a40">Nav</text>
<rect x="343" y="214" width="34" height="34" rx="4" fill="#ffffff" stroke="#c8d0e0" stroke-width="1.2"/><text x="360" y="232" text-anchor="middle" dominant-baseline="middle" font-size="13" font-family="ui-monospace,monospace" fill="#1a2a40">↵</text>
<rect x="4" y="270" width="542" height="236" rx="8" fill="#fce8ef" stroke="#c8d0e0" stroke-width="1"/>
<rect x="4" y="270" width="72" height="20" rx="4" fill="#3858a0"/>
<text x="40" y="284" text-anchor="middle" font-size="11" font-weight="700" font-family="system-ui,sans-serif" fill="#ffffff">Sym</text>
<rect x="55" y="322" width="34" height="34" rx="4" fill="#ffffff" stroke="#c8d0e0" stroke-width="1.2"/><text x="72" y="340" text-anchor="middle" dominant-baseline="middle" font-size="11" font-family="ui-monospace,monospace" fill="#1a2a40">&lt;</text>
<rect x="93" y="318" width="34" height="34" rx="4" fill="#ffffff" stroke="#c8d0e0" stroke-width="1.2"/><text x="110" y="336" text-anchor="middle" dominant-baseline="middle" font-size="13" font-family="ui-monospace,monospace" fill="#1a2a40">[</text>
<rect x="131" y="314" width="34" height="34" rx="4" fill="#ffffff" stroke="#c8d0e0" stroke-width="1.2"/><text x="148" y="332" text-anchor="middle" dominant-baseline="middle" font-size="13" font-family="ui-monospace,monospace" fill="#1a2a40">{</text>
<rect x="169" y="318" width="34" height="34" rx="4" fill="#ffffff" stroke="#c8d0e0" stroke-width="1.2"/><text x="186" y="336" text-anchor="middle" dominant-baseline="middle" font-size="13" font-family="ui-monospace,monospace" fill="#1a2a40">(</text>
<rect x="207" y="322" width="34" height="34" rx="4" fill="#ffffff" stroke="#c8d0e0" stroke-width="1.2"/><text x="224" y="340" text-anchor="middle" dominant-baseline="middle" font-size="11" font-family="ui-monospace,monospace" fill="#1a2a40">&amp;</text>
<rect x="271" y="322" width="34" height="34" rx="4" fill="#ffffff" stroke="#c8d0e0" stroke-width="1.2"/><text x="288" y="340" text-anchor="middle" dominant-baseline="middle" font-size="13" font-family="ui-monospace,monospace" fill="#1a2a40">@</text>
<rect x="309" y="318" width="34" height="34" rx="4" fill="#ffffff" stroke="#c8d0e0" stroke-width="1.2"/><text x="326" y="336" text-anchor="middle" dominant-baseline="middle" font-size="13" font-family="ui-monospace,monospace" fill="#1a2a40">)</text>
<rect x="347" y="314" width="34" height="34" rx="4" fill="#ffffff" stroke="#c8d0e0" stroke-width="1.2"/><text x="364" y="332" text-anchor="middle" dominant-baseline="middle" font-size="13" font-family="ui-monospace,monospace" fill="#1a2a40">}</text>
<rect x="385" y="318" width="34" height="34" rx="4" fill="#ffffff" stroke="#c8d0e0" stroke-width="1.2"/><text x="402" y="336" text-anchor="middle" dominant-baseline="middle" font-size="13" font-family="ui-monospace,monospace" fill="#1a2a40">]</text>
<rect x="423" y="322" width="34" height="34" rx="4" fill="#ffffff" stroke="#c8d0e0" stroke-width="1.2"/><text x="440" y="340" text-anchor="middle" dominant-baseline="middle" font-size="11" font-family="ui-monospace,monospace" fill="#1a2a40">&gt;</text>
<rect x="55" y="360" width="34" height="34" rx="4" fill="#ffecd0" stroke="#c8d0e0" stroke-width="1.2"/><text x="72" y="378" text-anchor="middle" dominant-baseline="middle" font-size="13" font-family="ui-monospace,monospace" fill="#1a2a40">⇧</text>
<rect x="93" y="356" width="34" height="34" rx="4" fill="#ffecd0" stroke="#c8d0e0" stroke-width="1.2"/><text x="110" y="374" text-anchor="middle" dominant-baseline="middle" font-size="13" font-family="ui-monospace,monospace" fill="#1a2a40">⎇</text>
<rect x="131" y="352" width="34" height="34" rx="4" fill="#ffecd0" stroke="#c8d0e0" stroke-width="1.2"/><text x="148" y="370" text-anchor="middle" dominant-baseline="middle" font-size="13" font-family="ui-monospace,monospace" fill="#1a2a40">⌘</text>
<rect x="169" y="356" width="34" height="34" rx="4" fill="#ffecd0" stroke="#c8d0e0" stroke-width="1.2"/><text x="186" y="374" text-anchor="middle" dominant-baseline="middle" font-size="13" font-family="ui-monospace,monospace" fill="#1a2a40">⌃</text>
<rect x="207" y="360" width="34" height="34" rx="4" fill="#ffffff" stroke="#c8d0e0" stroke-width="1.2"/><text x="224" y="378" text-anchor="middle" dominant-baseline="middle" font-size="13" font-family="ui-monospace,monospace" fill="#1a2a40">=</text>
<rect x="271" y="360" width="34" height="34" rx="4" fill="#ffffff" stroke="#c8d0e0" stroke-width="1.2"/><text x="288" y="378" text-anchor="middle" dominant-baseline="middle" font-size="13" font-family="ui-monospace,monospace" fill="#1a2a40">~</text>
<rect x="309" y="356" width="34" height="34" rx="4" fill="#f0e0ff" stroke="#c8d0e0" stroke-width="1.2"/><text x="326" y="374" text-anchor="middle" dominant-baseline="middle" font-size="11" font-family="ui-monospace,monospace" fill="#1a2a40">Sc ↓</text>
<rect x="347" y="352" width="34" height="34" rx="4" fill="#f0e0ff" stroke="#c8d0e0" stroke-width="1.2"/><text x="364" y="370" text-anchor="middle" dominant-baseline="middle" font-size="11" font-family="ui-monospace,monospace" fill="#1a2a40">Sc ↑</text>
<rect x="385" y="356" width="34" height="34" rx="4" fill="#f0f0f0" stroke="#c8d0e0" stroke-width="1.2"/><text x="402" y="374" text-anchor="middle" dominant-baseline="middle" font-size="13" font-family="ui-monospace,monospace" fill="#b0b8c8"></text>
<rect x="423" y="360" width="34" height="34" rx="4" fill="#f0f0f0" stroke="#c8d0e0" stroke-width="1.2"/><text x="440" y="378" text-anchor="middle" dominant-baseline="middle" font-size="13" font-family="ui-monospace,monospace" fill="#b0b8c8"></text>
<rect x="17" y="398" width="34" height="34" rx="4" fill="#ffffff" stroke="#c8d0e0" stroke-width="1.2"/><text x="34" y="416" text-anchor="middle" dominant-baseline="middle" font-size="13" font-family="ui-monospace,monospace" fill="#1a2a40">⌘Z</text>
<rect x="55" y="398" width="34" height="34" rx="4" fill="#ffffff" stroke="#c8d0e0" stroke-width="1.2"/><text x="72" y="416" text-anchor="middle" dominant-baseline="middle" font-size="13" font-family="ui-monospace,monospace" fill="#1a2a40">#</text>
<rect x="93" y="394" width="34" height="34" rx="4" fill="#ffffff" stroke="#c8d0e0" stroke-width="1.2"/><text x="110" y="412" text-anchor="middle" dominant-baseline="middle" font-size="13" font-family="ui-monospace,monospace" fill="#1a2a40">|</text>
<rect x="131" y="390" width="34" height="34" rx="4" fill="#ffffff" stroke="#c8d0e0" stroke-width="1.2"/><text x="148" y="408" text-anchor="middle" dominant-baseline="middle" font-size="13" font-family="ui-monospace,monospace" fill="#1a2a40">*</text>
<rect x="169" y="394" width="34" height="34" rx="4" fill="#ffffff" stroke="#c8d0e0" stroke-width="1.2"/><text x="186" y="412" text-anchor="middle" dominant-baseline="middle" font-size="13" font-family="ui-monospace,monospace" fill="#1a2a40">-</text>
<rect x="207" y="398" width="34" height="34" rx="4" fill="#ffffff" stroke="#c8d0e0" stroke-width="1.2"/><text x="224" y="416" text-anchor="middle" dominant-baseline="middle" font-size="13" font-family="ui-monospace,monospace" fill="#1a2a40">+</text>
<rect x="271" y="398" width="34" height="34" rx="4" fill="#ffffff" stroke="#c8d0e0" stroke-width="1.2"/><text x="288" y="416" text-anchor="middle" dominant-baseline="middle" font-size="13" font-family="ui-monospace,monospace" fill="#1a2a40">^</text>
<rect x="309" y="394" width="34" height="34" rx="4" fill="#ffffff" stroke="#c8d0e0" stroke-width="1.2"/><text x="326" y="412" text-anchor="middle" dominant-baseline="middle" font-size="13" font-family="ui-monospace,monospace" fill="#1a2a40">\</text>
<rect x="347" y="390" width="34" height="34" rx="4" fill="#ffffff" stroke="#c8d0e0" stroke-width="1.2"/><text x="364" y="408" text-anchor="middle" dominant-baseline="middle" font-size="13" font-family="ui-monospace,monospace" fill="#1a2a40">$</text>
<rect x="385" y="394" width="34" height="34" rx="4" fill="#ffffff" stroke="#c8d0e0" stroke-width="1.2"/><text x="402" y="412" text-anchor="middle" dominant-baseline="middle" font-size="13" font-family="ui-monospace,monospace" fill="#1a2a40">!</text>
<rect x="423" y="398" width="34" height="34" rx="4" fill="#ffffff" stroke="#c8d0e0" stroke-width="1.2"/><text x="440" y="416" text-anchor="middle" dominant-baseline="middle" font-size="13" font-family="ui-monospace,monospace" fill="#1a2a40">%</text>
<rect x="461" y="398" width="34" height="34" rx="4" fill="#ffffff" stroke="#c8d0e0" stroke-width="1.2"/><text x="478" y="416" text-anchor="middle" dominant-baseline="middle" font-size="13" font-family="ui-monospace,monospace" fill="#1a2a40">`</text>
<rect x="127" y="452" width="34" height="34" rx="4" fill="#ffffff" stroke="#c8d0e0" stroke-width="1.2"/><text x="144" y="470" text-anchor="middle" dominant-baseline="middle" font-size="13" font-family="ui-monospace,monospace" fill="#1a2a40">Del</text>
<rect x="165" y="446" width="34" height="34" rx="4" fill="#5070c0" stroke="#c8d0e0" stroke-width="1.2"/><text x="182" y="464" text-anchor="middle" dominant-baseline="middle" font-size="13" font-family="ui-monospace,monospace" fill="#fff"></text>
<rect x="203" y="452" width="34" height="34" rx="4" fill="#f0f0f0" stroke="#c8d0e0" stroke-width="1.2"/><text x="220" y="470" text-anchor="middle" dominant-baseline="middle" font-size="13" font-family="ui-monospace,monospace" fill="#b0b8c8"></text>
<rect x="267" y="452" width="34" height="34" rx="4" fill="#ffffff" stroke="#c8d0e0" stroke-width="1.2"/><text x="284" y="470" text-anchor="middle" dominant-baseline="middle" font-size="11" font-family="ui-monospace,monospace" fill="#1a2a40">Space</text>
<rect x="305" y="446" width="34" height="34" rx="4" fill="#d0e4ff" stroke="#c8d0e0" stroke-width="1.2"/><text x="322" y="464" text-anchor="middle" dominant-baseline="middle" font-size="13" font-family="ui-monospace,monospace" fill="#1a2a40">Nav</text>
<rect x="343" y="452" width="34" height="34" rx="4" fill="#ffffff" stroke="#c8d0e0" stroke-width="1.2"/><text x="360" y="470" text-anchor="middle" dominant-baseline="middle" font-size="13" font-family="ui-monospace,monospace" fill="#1a2a40">⌘↩</text>
<rect x="4" y="508" width="542" height="236" rx="8" fill="#e8feee" stroke="#c8d0e0" stroke-width="1"/>
<rect x="4" y="508" width="72" height="20" rx="4" fill="#3858a0"/>
<text x="40" y="522" text-anchor="middle" font-size="11" font-weight="700" font-family="system-ui,sans-serif" fill="#ffffff">Nav</text>
<rect x="55" y="560" width="34" height="34" rx="4" fill="#ffecd0" stroke="#c8d0e0" stroke-width="1.2"/><text x="72" y="578" text-anchor="middle" dominant-baseline="middle" font-size="13" font-family="ui-monospace,monospace" fill="#1a2a40">⇧</text>
<rect x="93" y="556" width="34" height="34" rx="4" fill="#f0e0ff" stroke="#c8d0e0" stroke-width="1.2"/><text x="110" y="574" text-anchor="middle" dominant-baseline="middle" font-size="11" font-family="ui-monospace,monospace" fill="#1a2a40">Mb-R</text>
<rect x="131" y="552" width="34" height="34" rx="4" fill="#f0e0ff" stroke="#c8d0e0" stroke-width="1.2"/><text x="148" y="570" text-anchor="middle" dominant-baseline="middle" font-size="11" font-family="ui-monospace,monospace" fill="#1a2a40">Mv ↑</text>
<rect x="169" y="556" width="34" height="34" rx="4" fill="#f0e0ff" stroke="#c8d0e0" stroke-width="1.2"/><text x="186" y="574" text-anchor="middle" dominant-baseline="middle" font-size="11" font-family="ui-monospace,monospace" fill="#1a2a40">Mb-L</text>
<rect x="207" y="560" width="34" height="34" rx="4" fill="#f0f0f0" stroke="#c8d0e0" stroke-width="1.2"/><text x="224" y="578" text-anchor="middle" dominant-baseline="middle" font-size="13" font-family="ui-monospace,monospace" fill="#b0b8c8"></text>
<rect x="271" y="560" width="34" height="34" rx="4" fill="#ffffff" stroke="#c8d0e0" stroke-width="1.2"/><text x="288" y="578" text-anchor="middle" dominant-baseline="middle" font-size="13" font-family="ui-monospace,monospace" fill="#1a2a40">Del</text>
<rect x="309" y="556" width="34" height="34" rx="4" fill="#ffecd0" stroke="#c8d0e0" stroke-width="1.2"/><text x="326" y="574" text-anchor="middle" dominant-baseline="middle" font-size="13" font-family="ui-monospace,monospace" fill="#1a2a40">⌃</text>
<rect x="347" y="552" width="34" height="34" rx="4" fill="#ffecd0" stroke="#c8d0e0" stroke-width="1.2"/><text x="364" y="570" text-anchor="middle" dominant-baseline="middle" font-size="13" font-family="ui-monospace,monospace" fill="#1a2a40">⌘</text>
<rect x="385" y="556" width="34" height="34" rx="4" fill="#ffecd0" stroke="#c8d0e0" stroke-width="1.2"/><text x="402" y="574" text-anchor="middle" dominant-baseline="middle" font-size="13" font-family="ui-monospace,monospace" fill="#1a2a40">⎇</text>
<rect x="423" y="560" width="34" height="34" rx="4" fill="#ffecd0" stroke="#c8d0e0" stroke-width="1.2"/><text x="440" y="578" text-anchor="middle" dominant-baseline="middle" font-size="13" font-family="ui-monospace,monospace" fill="#1a2a40">⇧</text>
<rect x="55" y="598" width="34" height="34" rx="4" fill="#f0e0ff" stroke="#c8d0e0" stroke-width="1.2"/><text x="72" y="616" text-anchor="middle" dominant-baseline="middle" font-size="11" font-family="ui-monospace,monospace" fill="#1a2a40">Sc ←</text>
<rect x="93" y="594" width="34" height="34" rx="4" fill="#f0e0ff" stroke="#c8d0e0" stroke-width="1.2"/><text x="110" y="612" text-anchor="middle" dominant-baseline="middle" font-size="11" font-family="ui-monospace,monospace" fill="#1a2a40">Mv ←</text>
<rect x="131" y="590" width="34" height="34" rx="4" fill="#f0e0ff" stroke="#c8d0e0" stroke-width="1.2"/><text x="148" y="608" text-anchor="middle" dominant-baseline="middle" font-size="11" font-family="ui-monospace,monospace" fill="#1a2a40">Mv ↓</text>
<rect x="169" y="594" width="34" height="34" rx="4" fill="#f0e0ff" stroke="#c8d0e0" stroke-width="1.2"/><text x="186" y="612" text-anchor="middle" dominant-baseline="middle" font-size="11" font-family="ui-monospace,monospace" fill="#1a2a40">Mv →</text>
<rect x="207" y="598" width="34" height="34" rx="4" fill="#f0e0ff" stroke="#c8d0e0" stroke-width="1.2"/><text x="224" y="616" text-anchor="middle" dominant-baseline="middle" font-size="11" font-family="ui-monospace,monospace" fill="#1a2a40">Sc →</text>
<rect x="271" y="598" width="34" height="34" rx="4" fill="#ffffff" stroke="#c8d0e0" stroke-width="1.2"/><text x="288" y="616" text-anchor="middle" dominant-baseline="middle" font-size="13" font-family="ui-monospace,monospace" fill="#1a2a40">←</text>
<rect x="309" y="594" width="34" height="34" rx="4" fill="#ffffff" stroke="#c8d0e0" stroke-width="1.2"/><text x="326" y="612" text-anchor="middle" dominant-baseline="middle" font-size="13" font-family="ui-monospace,monospace" fill="#1a2a40">↓</text>
<rect x="347" y="590" width="34" height="34" rx="4" fill="#ffffff" stroke="#c8d0e0" stroke-width="1.2"/><text x="364" y="608" text-anchor="middle" dominant-baseline="middle" font-size="13" font-family="ui-monospace,monospace" fill="#1a2a40">↑</text>
<rect x="385" y="594" width="34" height="34" rx="4" fill="#ffffff" stroke="#c8d0e0" stroke-width="1.2"/><text x="402" y="612" text-anchor="middle" dominant-baseline="middle" font-size="13" font-family="ui-monospace,monospace" fill="#1a2a40">→</text>
<rect x="423" y="598" width="34" height="34" rx="4" fill="#ffffff" stroke="#c8d0e0" stroke-width="1.2"/><text x="440" y="616" text-anchor="middle" dominant-baseline="middle" font-size="13" font-family="ui-monospace,monospace" fill="#1a2a40">_</text>
<rect x="17" y="636" width="34" height="34" rx="4" fill="#ffffff" stroke="#c8d0e0" stroke-width="1.2"/><text x="34" y="654" text-anchor="middle" dominant-baseline="middle" font-size="13" font-family="ui-monospace,monospace" fill="#1a2a40">Tab</text>
<rect x="55" y="636" width="34" height="34" rx="4" fill="#ffffff" stroke="#c8d0e0" stroke-width="1.2"/><text x="72" y="654" text-anchor="middle" dominant-baseline="middle" font-size="13" font-family="ui-monospace,monospace" fill="#1a2a40">1</text>
<rect x="93" y="632" width="34" height="34" rx="4" fill="#ffffff" stroke="#c8d0e0" stroke-width="1.2"/><text x="110" y="650" text-anchor="middle" dominant-baseline="middle" font-size="13" font-family="ui-monospace,monospace" fill="#1a2a40">2</text>
<rect x="131" y="628" width="34" height="34" rx="4" fill="#ffffff" stroke="#c8d0e0" stroke-width="1.2"/><text x="148" y="646" text-anchor="middle" dominant-baseline="middle" font-size="13" font-family="ui-monospace,monospace" fill="#1a2a40">3</text>
<rect x="169" y="632" width="34" height="34" rx="4" fill="#ffffff" stroke="#c8d0e0" stroke-width="1.2"/><text x="186" y="650" text-anchor="middle" dominant-baseline="middle" font-size="13" font-family="ui-monospace,monospace" fill="#1a2a40">4</text>
<rect x="207" y="636" width="34" height="34" rx="4" fill="#ffffff" stroke="#c8d0e0" stroke-width="1.2"/><text x="224" y="654" text-anchor="middle" dominant-baseline="middle" font-size="13" font-family="ui-monospace,monospace" fill="#1a2a40">5</text>
<rect x="271" y="636" width="34" height="34" rx="4" fill="#ffffff" stroke="#c8d0e0" stroke-width="1.2"/><text x="288" y="654" text-anchor="middle" dominant-baseline="middle" font-size="13" font-family="ui-monospace,monospace" fill="#1a2a40">6</text>
<rect x="309" y="632" width="34" height="34" rx="4" fill="#ffffff" stroke="#c8d0e0" stroke-width="1.2"/><text x="326" y="650" text-anchor="middle" dominant-baseline="middle" font-size="13" font-family="ui-monospace,monospace" fill="#1a2a40">7</text>
<rect x="347" y="628" width="34" height="34" rx="4" fill="#ffffff" stroke="#c8d0e0" stroke-width="1.2"/><text x="364" y="646" text-anchor="middle" dominant-baseline="middle" font-size="13" font-family="ui-monospace,monospace" fill="#1a2a40">8</text>
<rect x="385" y="632" width="34" height="34" rx="4" fill="#ffffff" stroke="#c8d0e0" stroke-width="1.2"/><text x="402" y="650" text-anchor="middle" dominant-baseline="middle" font-size="13" font-family="ui-monospace,monospace" fill="#1a2a40">9</text>
<rect x="423" y="636" width="34" height="34" rx="4" fill="#ffffff" stroke="#c8d0e0" stroke-width="1.2"/><text x="440" y="654" text-anchor="middle" dominant-baseline="middle" font-size="13" font-family="ui-monospace,monospace" fill="#1a2a40">0</text>
<rect x="461" y="636" width="34" height="34" rx="4" fill="#ffffff" stroke="#c8d0e0" stroke-width="1.2"/><text x="478" y="654" text-anchor="middle" dominant-baseline="middle" font-size="13" font-family="ui-monospace,monospace" fill="#1a2a40">-</text>
<rect x="127" y="690" width="34" height="34" rx="4" fill="#ffffff" stroke="#c8d0e0" stroke-width="1.2"/><text x="144" y="708" text-anchor="middle" dominant-baseline="middle" font-size="13" font-family="ui-monospace,monospace" fill="#1a2a40">⌘</text>
<rect x="165" y="684" width="34" height="34" rx="4" fill="#d0e4ff" stroke="#c8d0e0" stroke-width="1.2"/><text x="182" y="702" text-anchor="middle" dominant-baseline="middle" font-size="13" font-family="ui-monospace,monospace" fill="#1a2a40">Sym</text>
<rect x="203" y="690" width="34" height="34" rx="4" fill="#ffffff" stroke="#c8d0e0" stroke-width="1.2"/><text x="220" y="708" text-anchor="middle" dominant-baseline="middle" font-size="13" font-family="ui-monospace,monospace" fill="#1a2a40">⎇</text>
<rect x="267" y="690" width="34" height="34" rx="4" fill="#f0f0f0" stroke="#c8d0e0" stroke-width="1.2"/><text x="284" y="708" text-anchor="middle" dominant-baseline="middle" font-size="13" font-family="ui-monospace,monospace" fill="#b0b8c8"></text>
<rect x="305" y="684" width="34" height="34" rx="4" fill="#5070c0" stroke="#c8d0e0" stroke-width="1.2"/><text x="322" y="702" text-anchor="middle" dominant-baseline="middle" font-size="13" font-family="ui-monospace,monospace" fill="#fff"></text>
<rect x="343" y="690" width="34" height="34" rx="4" fill="#f0f0f0" stroke="#c8d0e0" stroke-width="1.2"/><text x="360" y="708" text-anchor="middle" dominant-baseline="middle" font-size="13" font-family="ui-monospace,monospace" fill="#b0b8c8"></text>
<rect x="4" y="746" width="542" height="236" rx="8" fill="#fefee8" stroke="#c8d0e0" stroke-width="1"/>
<rect x="4" y="746" width="72" height="20" rx="4" fill="#3858a0"/>
<text x="40" y="760" text-anchor="middle" font-size="11" font-weight="700" font-family="system-ui,sans-serif" fill="#ffffff">Adjust</text>
<rect x="55" y="798" width="34" height="34" rx="4" fill="#ffe0f0" stroke="#c8d0e0" stroke-width="1.2"/><text x="72" y="816" text-anchor="middle" dominant-baseline="middle" font-size="11" font-family="ui-monospace,monospace" fill="#1a2a40">BT 0</text>
<rect x="93" y="794" width="34" height="34" rx="4" fill="#ffe0f0" stroke="#c8d0e0" stroke-width="1.2"/><text x="110" y="812" text-anchor="middle" dominant-baseline="middle" font-size="11" font-family="ui-monospace,monospace" fill="#1a2a40">BT 1</text>
<rect x="131" y="790" width="34" height="34" rx="4" fill="#ffe0f0" stroke="#c8d0e0" stroke-width="1.2"/><text x="148" y="808" text-anchor="middle" dominant-baseline="middle" font-size="11" font-family="ui-monospace,monospace" fill="#1a2a40">BT 2</text>
<rect x="169" y="794" width="34" height="34" rx="4" fill="#e0f0e0" stroke="#c8d0e0" stroke-width="1.2"/><text x="186" y="812" text-anchor="middle" dominant-baseline="middle" font-size="9" font-family="ui-monospace,monospace" fill="#1a2a40">Exposé</text>
<rect x="207" y="798" width="34" height="34" rx="4" fill="#e0f0e0" stroke="#c8d0e0" stroke-width="1.2"/><text x="224" y="816" text-anchor="middle" dominant-baseline="middle" font-size="9" font-family="ui-monospace,monospace" fill="#1a2a40">Launchpad</text>
<rect x="271" y="798" width="34" height="34" rx="4" fill="#e0f0e0" stroke="#c8d0e0" stroke-width="1.2"/><text x="288" y="816" text-anchor="middle" dominant-baseline="middle" font-size="11" font-family="ui-monospace,monospace" fill="#1a2a40">Play</text>
<rect x="309" y="794" width="34" height="34" rx="4" fill="#e0f0e0" stroke="#c8d0e0" stroke-width="1.2"/><text x="326" y="812" text-anchor="middle" dominant-baseline="middle" font-size="11" font-family="ui-monospace,monospace" fill="#1a2a40">Vol-</text>
<rect x="347" y="790" width="34" height="34" rx="4" fill="#e0f0e0" stroke="#c8d0e0" stroke-width="1.2"/><text x="364" y="808" text-anchor="middle" dominant-baseline="middle" font-size="11" font-family="ui-monospace,monospace" fill="#1a2a40">Vol+</text>
<rect x="385" y="794" width="34" height="34" rx="4" fill="#e0f0e0" stroke="#c8d0e0" stroke-width="1.2"/><text x="402" y="812" text-anchor="middle" dominant-baseline="middle" font-size="11" font-family="ui-monospace,monospace" fill="#1a2a40">Mute</text>
<rect x="423" y="798" width="34" height="34" rx="4" fill="#e0f0e0" stroke="#c8d0e0" stroke-width="1.2"/><text x="440" y="816" text-anchor="middle" dominant-baseline="middle" font-size="11" font-family="ui-monospace,monospace" fill="#1a2a40">Next</text>
<rect x="55" y="836" width="34" height="34" rx="4" fill="#ffe0f0" stroke="#c8d0e0" stroke-width="1.2"/><text x="72" y="854" text-anchor="middle" dominant-baseline="middle" font-size="9" font-family="ui-monospace,monospace" fill="#1a2a40">BT clr</text>
<rect x="93" y="832" width="34" height="34" rx="4" fill="#fff0d0" stroke="#c8d0e0" stroke-width="1.2"/><text x="110" y="850" text-anchor="middle" dominant-baseline="middle" font-size="9" font-family="ui-monospace,monospace" fill="#1a2a40">Unlock</text>
<rect x="131" y="828" width="34" height="34" rx="4" fill="#f0f0f0" stroke="#c8d0e0" stroke-width="1.2"/><text x="148" y="846" text-anchor="middle" dominant-baseline="middle" font-size="13" font-family="ui-monospace,monospace" fill="#b0b8c8"></text>
<rect x="169" y="832" width="34" height="34" rx="4" fill="#f0f0f0" stroke="#c8d0e0" stroke-width="1.2"/><text x="186" y="850" text-anchor="middle" dominant-baseline="middle" font-size="13" font-family="ui-monospace,monospace" fill="#b0b8c8"></text>
<rect x="207" y="836" width="34" height="34" rx="4" fill="#fff0d0" stroke="#c8d0e0" stroke-width="1.2"/><text x="224" y="854" text-anchor="middle" dominant-baseline="middle" font-size="11" font-family="ui-monospace,monospace" fill="#1a2a40">CAPS*</text>
<rect x="271" y="836" width="34" height="34" rx="4" fill="#ffffff" stroke="#c8d0e0" stroke-width="1.2"/><text x="288" y="854" text-anchor="middle" dominant-baseline="middle" font-size="11" font-family="ui-monospace,monospace" fill="#1a2a40">Home</text>
<rect x="309" y="832" width="34" height="34" rx="4" fill="#ffffff" stroke="#c8d0e0" stroke-width="1.2"/><text x="326" y="850" text-anchor="middle" dominant-baseline="middle" font-size="11" font-family="ui-monospace,monospace" fill="#1a2a40">PgDn</text>
<rect x="347" y="828" width="34" height="34" rx="4" fill="#ffffff" stroke="#c8d0e0" stroke-width="1.2"/><text x="364" y="846" text-anchor="middle" dominant-baseline="middle" font-size="11" font-family="ui-monospace,monospace" fill="#1a2a40">PgUp</text>
<rect x="385" y="832" width="34" height="34" rx="4" fill="#ffffff" stroke="#c8d0e0" stroke-width="1.2"/><text x="402" y="850" text-anchor="middle" dominant-baseline="middle" font-size="13" font-family="ui-monospace,monospace" fill="#1a2a40">End</text>
<rect x="423" y="836" width="34" height="34" rx="4" fill="#ffffff" stroke="#c8d0e0" stroke-width="1.2"/><text x="440" y="854" text-anchor="middle" dominant-baseline="middle" font-size="13" font-family="ui-monospace,monospace" fill="#1a2a40">Ins</text>
<rect x="17" y="874" width="34" height="34" rx="4" fill="#ffffff" stroke="#c8d0e0" stroke-width="1.2"/><text x="34" y="892" text-anchor="middle" dominant-baseline="middle" font-size="13" font-family="ui-monospace,monospace" fill="#1a2a40">F12</text>
<rect x="55" y="874" width="34" height="34" rx="4" fill="#ffffff" stroke="#c8d0e0" stroke-width="1.2"/><text x="72" y="892" text-anchor="middle" dominant-baseline="middle" font-size="13" font-family="ui-monospace,monospace" fill="#1a2a40">F1</text>
<rect x="93" y="870" width="34" height="34" rx="4" fill="#ffffff" stroke="#c8d0e0" stroke-width="1.2"/><text x="110" y="888" text-anchor="middle" dominant-baseline="middle" font-size="13" font-family="ui-monospace,monospace" fill="#1a2a40">F2</text>
<rect x="131" y="866" width="34" height="34" rx="4" fill="#ffffff" stroke="#c8d0e0" stroke-width="1.2"/><text x="148" y="884" text-anchor="middle" dominant-baseline="middle" font-size="13" font-family="ui-monospace,monospace" fill="#1a2a40">F3</text>
<rect x="169" y="870" width="34" height="34" rx="4" fill="#ffffff" stroke="#c8d0e0" stroke-width="1.2"/><text x="186" y="888" text-anchor="middle" dominant-baseline="middle" font-size="13" font-family="ui-monospace,monospace" fill="#1a2a40">F4</text>
<rect x="207" y="874" width="34" height="34" rx="4" fill="#ffffff" stroke="#c8d0e0" stroke-width="1.2"/><text x="224" y="892" text-anchor="middle" dominant-baseline="middle" font-size="13" font-family="ui-monospace,monospace" fill="#1a2a40">F5</text>
<rect x="271" y="874" width="34" height="34" rx="4" fill="#ffffff" stroke="#c8d0e0" stroke-width="1.2"/><text x="288" y="892" text-anchor="middle" dominant-baseline="middle" font-size="13" font-family="ui-monospace,monospace" fill="#1a2a40">F6</text>
<rect x="309" y="870" width="34" height="34" rx="4" fill="#ffffff" stroke="#c8d0e0" stroke-width="1.2"/><text x="326" y="888" text-anchor="middle" dominant-baseline="middle" font-size="13" font-family="ui-monospace,monospace" fill="#1a2a40">F7</text>
<rect x="347" y="866" width="34" height="34" rx="4" fill="#ffffff" stroke="#c8d0e0" stroke-width="1.2"/><text x="364" y="884" text-anchor="middle" dominant-baseline="middle" font-size="13" font-family="ui-monospace,monospace" fill="#1a2a40">F8</text>
<rect x="385" y="870" width="34" height="34" rx="4" fill="#ffffff" stroke="#c8d0e0" stroke-width="1.2"/><text x="402" y="888" text-anchor="middle" dominant-baseline="middle" font-size="13" font-family="ui-monospace,monospace" fill="#1a2a40">F9</text>
<rect x="423" y="874" width="34" height="34" rx="4" fill="#ffffff" stroke="#c8d0e0" stroke-width="1.2"/><text x="440" y="892" text-anchor="middle" dominant-baseline="middle" font-size="13" font-family="ui-monospace,monospace" fill="#1a2a40">F10</text>
<rect x="461" y="874" width="34" height="34" rx="4" fill="#ffffff" stroke="#c8d0e0" stroke-width="1.2"/><text x="478" y="892" text-anchor="middle" dominant-baseline="middle" font-size="13" font-family="ui-monospace,monospace" fill="#1a2a40">F11</text>
<rect x="127" y="928" width="34" height="34" rx="4" fill="#f0f0f0" stroke="#c8d0e0" stroke-width="1.2"/><text x="144" y="946" text-anchor="middle" dominant-baseline="middle" font-size="13" font-family="ui-monospace,monospace" fill="#b0b8c8"></text>
<rect x="165" y="922" width="34" height="34" rx="4" fill="#f0f0f0" stroke="#c8d0e0" stroke-width="1.2"/><text x="182" y="940" text-anchor="middle" dominant-baseline="middle" font-size="13" font-family="ui-monospace,monospace" fill="#b0b8c8"></text>
<rect x="203" y="928" width="34" height="34" rx="4" fill="#f0f0f0" stroke="#c8d0e0" stroke-width="1.2"/><text x="220" y="946" text-anchor="middle" dominant-baseline="middle" font-size="13" font-family="ui-monospace,monospace" fill="#b0b8c8"></text>
<rect x="267" y="928" width="34" height="34" rx="4" fill="#f0f0f0" stroke="#c8d0e0" stroke-width="1.2"/><text x="284" y="946" text-anchor="middle" dominant-baseline="middle" font-size="13" font-family="ui-monospace,monospace" fill="#b0b8c8"></text>
<rect x="305" y="922" width="34" height="34" rx="4" fill="#f0f0f0" stroke="#c8d0e0" stroke-width="1.2"/><text x="322" y="940" text-anchor="middle" dominant-baseline="middle" font-size="13" font-family="ui-monospace,monospace" fill="#b0b8c8"></text>
<rect x="343" y="928" width="34" height="34" rx="4" fill="#f0f0f0" stroke="#c8d0e0" stroke-width="1.2"/><text x="360" y="946" text-anchor="middle" dominant-baseline="middle" font-size="13" font-family="ui-monospace,monospace" fill="#b0b8c8"></text>
<rect x="20" y="1008" width="16" height="16" rx="3" fill="#5070c0" stroke="#c8d0e0" stroke-width="1"/>
<text x="40" y="1020" font-size="10" font-family="system-ui,sans-serif" fill="#445">Active layer</text>
<rect x="100" y="1008" width="16" height="16" rx="3" fill="#d0e4ff" stroke="#c8d0e0" stroke-width="1"/>
<text x="120" y="1020" font-size="10" font-family="system-ui,sans-serif" fill="#445">Layer tap</text>
<rect x="180" y="1008" width="16" height="16" rx="3" fill="#ffecd0" stroke="#c8d0e0" stroke-width="1"/>
<text x="200" y="1020" font-size="10" font-family="system-ui,sans-serif" fill="#445">Modifier</text>
<rect x="260" y="1008" width="16" height="16" rx="3" fill="#f0e0ff" stroke="#c8d0e0" stroke-width="1"/>
<text x="280" y="1020" font-size="10" font-family="system-ui,sans-serif" fill="#445">Mouse</text>
<rect x="340" y="1008" width="16" height="16" rx="3" fill="#e0f0e0" stroke="#c8d0e0" stroke-width="1"/>
<text x="360" y="1020" font-size="10" font-family="system-ui,sans-serif" fill="#445">Media</text>
<rect x="420" y="1008" width="16" height="16" rx="3" fill="#ffe0f0" stroke="#c8d0e0" stroke-width="1"/>
<text x="440" y="1020" font-size="10" font-family="system-ui,sans-serif" fill="#445">Bluetooth</text>
<rect x="500" y="1008" width="16" height="16" rx="3" fill="#f0f0f0" stroke="#c8d0e0" stroke-width="1"/>
<text x="520" y="1020" font-size="10" font-family="system-ui,sans-serif" fill="#445">—</text>
</svg>