<svg xmlns="http://www.w3.org/2000/svg" viewBox="0 0 550 304">
<rect width="550" height="304" fill="#f4f6fb"/>
<rect x="4" y="4" width="542" height="296" rx="10" fill="#e8f0fe" stroke="#c8d0e0" stroke-width="1"/>
<text x="275" y="24" text-anchor="middle" font-size="14" font-weight="700" font-family="system-ui,sans-serif" fill="#1a2a40">Base</text>
<rect x="55" y="84" width="34" height="34" rx="4" fill="#ffffff" stroke="#c8d0e0" stroke-width="1.2"/><text x="72" y="102" text-anchor="middle" dominant-baseline="middle" font-size="12" font-family="ui-monospace,monospace" fill="#1a2a40">Q</text>
<rect x="93" y="80" width="34" height="34" rx="4" fill="#ffffff" stroke="#c8d0e0" stroke-width="1.2"/><text x="110" y="98" text-anchor="middle" dominant-baseline="middle" font-size="12" font-family="ui-monospace,monospace" fill="#1a2a40">W</text>
<rect x="131" y="76" width="34" height="34" rx="4" fill="#ffffff" stroke="#c8d0e0" stroke-width="1.2"/><text x="148" y="94" text-anchor="middle" dominant-baseline="middle" font-size="12" font-family="ui-monospace,monospace" fill="#1a2a40">E</text>
<rect x="169" y="80" width="34" height="34" rx="4" fill="#ffffff" stroke="#c8d0e0" stroke-width="1.2"/><text x="186" y="98" text-anchor="middle" dominant-baseline="middle" font-size="12" font-family="ui-monospace,monospace" fill="#1a2a40">R</text>
<rect x="207" y="84" width="34" height="34" rx="4" fill="#ffffff" stroke="#c8d0e0" stroke-width="1.2"/><text x="224" y="102" text-anchor="middle" dominant-baseline="middle" font-size="12" font-family="ui-monospace,monospace" fill="#1a2a40">T</text>
<rect x="271" y="84" width="34" height="34" rx="4" fill="#ffffff" stroke="#c8d0e0" stroke-width="1.2"/><text x="288" y="102" text-anchor="middle" dominant-baseline="middle" font-size="12" font-family="ui-monospace,monospace" fill="#1a2a40">Y</text>
<rect x="309" y="80" width="34" height="34" rx="4" fill="#ffffff" stroke="#c8d0e0" stroke-width="1.2"/><text x="326" y="98" text-anchor="middle" dominant-baseline="middle" font-size="12" font-family="ui-monospace,monospace" fill="#1a2a40">U</text>
<rect x="347" y="76" width="34" height="34" rx="4" fill="#ffffff" stroke="#c8d0e0" stroke-width="1.2"/><text x="364" y="94" text-anchor="middle" dominant-baseline="middle" font-size="12" font-family="ui-monospace,monospace" fill="#1a2a40">I</text>
<rect x="385" y="80" width="34" height="34" rx="4" fill="#ffffff" stroke="#c8d0e0" stroke-width="1.2"/><text x="402" y="98" text-anchor="middle" dominant-baseline="middle" font-size="12" font-family="ui-monospace,monospace" fill="#1a2a40">O</text>
<rect x="423" y="84" width="34" height="34" rx="4" fill="#ffffff" stroke="#c8d0e0" stroke-width="1.2"/><text x="440" y="102" text-anchor="middle" dominant-baseline="middle" font-size="12" font-family="ui-monospace,monospace" fill="#1a2a40">P</text>
<rect x="55" y="122" width="34" height="34" rx="4" fill="#ffffff" stroke="#c8d0e0" stroke-width="1.2"/><text x="72" y="140" text-anchor="middle" dominant-baseline="middle" font-size="12" font-family="ui-monospace,monospace" fill="#1a2a40">A</text>
<rect x="93" y="118" width="34" height="34" rx="4" fill="#ffffff" stroke="#c8d0e0" stroke-width="1.2"/><text x="110" y="136" text-anchor="middle" dominant-baseline="middle" font-size="12" font-family="ui-monospace,monospace" fill="#1a2a40">S</text>
<rect x="131" y="114" width="34" height="34" rx="4" fill="#ffffff" stroke="#c8d0e0" stroke-width="1.2"/><text x="148" y="132" text-anchor="middle" dominant-baseline="middle" font-size="12" font-family="ui-monospace,monospace" fill="#1a2a40">D</text>
<rect x="169" y="118" width="34" height="34" rx="4" fill="#ffffff" stroke="#c8d0e0" stroke-width="1.2"/><text x="186" y="136" text-anchor="middle" dominant-baseline="middle" font-size="12" font-family="ui-monospace,monospace" fill="#1a2a40">F</text>
<rect x="207" y="122" width="34" height="34" rx="4" fill="#ffffff" stroke="#c8d0e0" stroke-width="1.2"/><text x="224" y="140" text-anchor="middle" dominant-baseline="middle" font-size="12" font-family="ui-monospace,monospace" fill="#1a2a40">G</text>
<rect x="271" y="122" width="34" height="34" rx="4" fill="#ffffff" stroke="#c8d0e0" stroke-width="1.2"/><text x="288" y="140" text-anchor="middle" dominant-baseline="middle" font-size="12" font-family="ui-monospace,monospace" fill="#1a2a40">H</text>
<rect x="309" y="118" width="34" height="34" rx="4" fill="#ffffff" stroke="#c8d0e0" stroke-width="1.2"/><text x="326" y="136" text-anchor="middle" dominant-baseline="middle" font-size="12" font-family="ui-monospace,monospace" fill="#1a2a40">J</text>
<rect x="347" y="114" width="34" height="34" rx="4" fill="#ffffff" stroke="#c8d0e0" stroke-width="1.2"/><text x="364" y="132" text-anchor="middle" dominant-baseline="middle" font-size="12" font-family="ui-monospace,monospace" fill="#1a2a40">K</text>
<rect x="385" y="118" width="34" height="34" rx="4" fill="#ffffff" stroke="#c8d0e0" stroke-width="1.2"/><text x="402" y="136" text-anchor="middle" dominant-baseline="middle" font-size="12" font-family="ui-monospace,monospace" fill="#1a2a40">L</text>
<rect x="423" y="122" width="34" height="34" rx="4" fill="#ffffff" stroke="#c8d0e0" stroke-width="1.2"/><text x="440" y="140" text-anchor="middle" dominant-baseline="middle" font-size="12" font-family="ui-monospace,monospace" fill="#1a2a40">;</text>
<rect x="17" y="160" width="34" height="34" rx="4" fill="#ffffff" stroke="#c8d0e0" stroke-width="1.2"/><text x="34" y="178" text-anchor="middle" dominant-baseline="middle" font-size="12" font-family="ui-monospace,monospace" fill="#1a2a40">Esc</text>
<rect x="55" y="160" width="34" height="34" rx="4" fill="#ffffff" stroke="#c8d0e0" stroke-width="1.2"/><text x="72" y="178" text-anchor="middle" dominant-baseline="middle" font-size="12" font-family="ui-monospace,monospace" fill="#1a2a40">Z</text>
<rect x="93" y="156" width="34" height="34" rx="4" fill="#ffffff" stroke="#c8d0e0" stroke-width="1.2"/><text x="110" y="174" text-anchor="middle" dominant-baseline="middle" font-size="12" font-family="ui-monospace,monospace" fill="#1a2a40">X</text>
<rect x="131" y="152" width="34" height="34" rx="4" fill="#ffffff" stroke="#c8d0e0" stroke-width="1.2"/><text x="148" y="170" text-anchor="middle" dominant-baseline="middle" font-size="12" font-family="ui-monospace,monospace" fill="#1a2a40">C</text>
<rect x="169" y="156" width="34" height="34" rx="4" fill="#ffffff" stroke="#c8d0e0" stroke-width="1.2"/><text x="186" y="174" text-anchor="middle" dominant-baseline="middle" font-size="12" font-family="ui-monospace,monospace" fill="#1a2a40">V</text>
<rect x="207" y="160" width="34" height="34" rx="4" fill="#ffffff" stroke="#c8d0e0" stroke-width="1.2"/><text x="224" y="178" text-anchor="middle" dominant-baseline="middle" font-size="12" font-family="ui-monospace,monospace" fill="#1a2a40">B</text>
<rect x="271" y="160" width="34" height="34" rx="4" fill="#ffffff" stroke="#c8d0e0" stroke-width="1.2"/><text x="288" y="178" text-anchor="middle" dominant-baseline="middle" font-size="12" font-family="ui-monospace,monospace" fill="#1a2a40">N</text>
<rect x="309" y="156" width="34" height="34" rx="4" fill="#ffffff" stroke="#c8d0e0" stroke-width="1.2"/><text x="326" y="174" text-anchor="middle" dominant-baseline="middle" font-size="12" font-family="ui-monospace,monospace" fill="#1a2a40">M</text>
<rect x="347" y="152" width="34" height="34" rx="4" fill="#ffffff" stroke="#c8d0e0" stroke-width="1.2"/><text x="364" y="170" text-anchor="middle" dominant-baseline="middle" font-size="12" font-family="ui-monospace,monospace" fill="#1a2a40">,</text>
<rect x="385" y="156" width="34" height="34" rx="4" fill="#ffffff" stroke="#c8d0e0" stroke-width="1.2"/><text x="402" y="174" text-anchor="middle" dominant-baseline="middle" font-size="12" font-family="ui-monospace,monospace" fill="#1a2a40">.</text>
<rect x="423" y="160" width="34" height="34" rx="4" fill="#ffffff" stroke="#c8d0e0" stroke-width="1.2"/><text x="440" y="178" text-anchor="middle" dominant-baseline="middle" font-size="12" font-family="ui-monospace,monospace" fill="#1a2a40">/</text>
<rect x="461" y="160" width="34" height="34" rx="4" fill="#ffffff" stroke="#c8d0e0" stroke-width="1.2"/><text x="478" y="178" text-anchor="middle" dominant-baseline="middle" font-size="12" font-family="ui-monospace,monospace" fill="#1a2a40">'</text>
<rect x="127" y="214" width="34" height="34" rx="4" fill="#ffffff" stroke="#c8d0e0" stroke-width="1.2"/><text x="144" y="232" text-anchor="middle" dominant-baseline="middle" font-size="10" font-family="ui-monospace,monospace" fill="#1a2a40">Bspc</text>
<rect x="165" y="208" width="34" height="34" rx="4" fill="#d0e4ff" stroke="#c8d0e0" stroke-width="1.2"/><text x="182" y="226" text-anchor="middle" dominant-baseline="middle" font-size="10" font-family="ui-monospace,monospace" fill="#1a2a40">[Sym]</text>
<rect x="203" y="214" width="34" height="34" rx="4" fill="#ffecd0" stroke="#c8d0e0" stroke-width="1.2"/><text x="220" y="232" text-anchor="middle" dominant-baseline="middle" font-size="10" font-family="ui-monospace,monospace" fill="#1a2a40">Shft</text>
<rect x="267" y="214" width="34" height="34" rx="4" fill="#ffffff" stroke="#c8d0e0" stroke-width="1.2"/><text x="284" y="232" text-anchor="middle" dominant-baseline="middle" font-size="10" font-family="ui-monospace,monospace" fill="#1a2a40">Space</text>
<rect x="305" y="208" width="34" height="34" rx="4" fill="#d0e4ff" stroke="#c8d0e0" stroke-width="1.2"/><text x="322" y="226" text-anchor="middle" dominant-baseline="middle" font-size="10" font-family="ui-monospace,monospace" fill="#1a2a40">[Nav]</text>
<rect x="343" y="214" width="34" height="34" rx="4" fill="#ffffff" stroke="#c8d0e0" stroke-width="1.2"/><text x="360" y="232" text-anchor="middle" dominant-baseline="middle" font-size="12" font-family="ui-monospace,monospace" fill="#1a2a40">Ret</text>
<rect x="10" y="268" width="14" height="14" rx="3" fill="#4060b8" stroke="#c8d0e0" stroke-width="1"/>
<text x="28" y="279" font-size="9" font-family="system-ui,sans-serif" fill="#445">Active layer key</text>
<rect x="92" y="268" width="14" height="14" rx="3" fill="#d0e4ff" stroke="#c8d0e0" stroke-width="1"/>
<text x="110" y="279" font-size="9" font-family="system-ui,sans-serif" fill="#445">Layer hold</text>
<rect x="174" y="268" width="14" height="14" rx="3" fill="#ffecd0" stroke="#c8d0e0" stroke-width="1"/>
<text x="192" y="279" font-size="9" font-family="system-ui,sans-serif" fill="#445">Modifier / sticky</text>
<rect x="256" y="268" width="14" height="14" rx="3" fill="#e8d8ff" stroke="#c8d0e0" stroke-width="1"/>
<text x="274" y="279" font-size="9" font-family="system-ui,sans-serif" fill="#445">Mouse</text>
<rect x="338" y="268" width="14" height="14" rx="3" fill="#e0f0e0" stroke="#c8d0e0" stroke-width="1"/>
<text x="356" y="279" font-size="9" font-family="system-ui,sans-serif" fill="#445">Media</text>
<rect x="420" y="268" width="14" height="14" rx="3" fill="#ffe0f0" stroke="#c8d0e0" stroke-width="1"/>
<text x="438" y="279" font-size="9" font-family="system-ui,sans-serif" fill="#445">Bluetooth</text>
<rect x="502" y="268" width="14" height="14" rx="3" fill="#f0f0f0" stroke="#c8d0e0" stroke-width="1"/>
<text x="520" y="279" font-size="9" font-family="system-ui,sans-serif" fill="#445">Unused</text>
</svg>