<svg xmlns="http://www.w3.org/2000/svg" viewBox="0 0 900 400" font-family="-apple-system,Helvetica,Arial,sans-serif">
<rect width="900" height="400" rx="12" fill="#1a1a2e"/>
<text x="450" y="25" text-anchor="middle" font-size="14" font-weight="bold" fill="#e0e0e0">Batch-100 latency over time: 50 consecutive batches · linear scale</text>
<text x="450" y="42" text-anchor="middle" font-size="10" fill="#888">Each batch = 100 sequential embeds from Northwind DB · 708 unique texts cycling</text>
<line x1="70" y1="350.0" x2="870" y2="350.0" stroke="#333" stroke-width="0.5" stroke-dasharray="4,4"/>
<text x="62" y="353.0" text-anchor="end" font-size="8" fill="#888">0s</text>
<line x1="70" y1="313.125" x2="870" y2="313.125" stroke="#333" stroke-width="0.5" stroke-dasharray="4,4"/>
<text x="62" y="316.125" text-anchor="end" font-size="7" fill="#555">500</text>
<line x1="70" y1="276.25" x2="870" y2="276.25" stroke="#333" stroke-width="0.5" stroke-dasharray="4,4"/>
<text x="62" y="279.25" text-anchor="end" font-size="8" fill="#888">1s</text>
<line x1="70" y1="239.375" x2="870" y2="239.375" stroke="#333" stroke-width="0.5" stroke-dasharray="4,4"/>
<text x="62" y="242.375" text-anchor="end" font-size="7" fill="#555">1500</text>
<line x1="70" y1="202.5" x2="870" y2="202.5" stroke="#333" stroke-width="0.5" stroke-dasharray="4,4"/>
<text x="62" y="205.5" text-anchor="end" font-size="8" fill="#888">2s</text>
<line x1="70" y1="165.625" x2="870" y2="165.625" stroke="#333" stroke-width="0.5" stroke-dasharray="4,4"/>
<text x="62" y="168.625" text-anchor="end" font-size="7" fill="#555">2500</text>
<line x1="70" y1="128.75" x2="870" y2="128.75" stroke="#333" stroke-width="0.5" stroke-dasharray="4,4"/>
<text x="62" y="131.75" text-anchor="end" font-size="8" fill="#888">3s</text>
<line x1="70" y1="91.875" x2="870" y2="91.875" stroke="#333" stroke-width="0.5" stroke-dasharray="4,4"/>
<text x="62" y="94.875" text-anchor="end" font-size="7" fill="#555">3500</text>
<line x1="70" y1="55.0" x2="870" y2="55.0" stroke="#333" stroke-width="0.5" stroke-dasharray="4,4"/>
<text x="62" y="58.0" text-anchor="end" font-size="8" fill="#888">4s</text>
<text x="25" y="202" text-anchor="middle" font-size="9" fill="#888" transform="rotate(-90,25,202)">batch total (ms)</text>
<text x="878" y="353.0" text-anchor="start" font-size="7" fill="#60a5fa">0ms</text>
<text x="878" y="279.25" text-anchor="start" font-size="7" fill="#60a5fa">10ms</text>
<text x="878" y="205.5" text-anchor="start" font-size="7" fill="#60a5fa">20ms</text>
<text x="878" y="131.75" text-anchor="start" font-size="7" fill="#60a5fa">30ms</text>
<text x="878" y="58.0" text-anchor="start" font-size="7" fill="#60a5fa">40ms</text>
<text x="70.0" y="365" text-anchor="middle" font-size="8" fill="#888">0</text>
<text x="230.0" y="365" text-anchor="middle" font-size="8" fill="#888">10</text>
<text x="390.0" y="365" text-anchor="middle" font-size="8" fill="#888">20</text>
<text x="550.0" y="365" text-anchor="middle" font-size="8" fill="#888">30</text>
<text x="710.0" y="365" text-anchor="middle" font-size="8" fill="#888">40</text>
<text x="870.0" y="365" text-anchor="middle" font-size="8" fill="#888">50</text>
<text x="470" y="380" text-anchor="middle" font-size="9" fill="#888">batch index</text>
<rect x="70.9" y="253.4" width="6.1" height="96.6" rx="1.5" fill="#22d3ee" opacity="0.7"/>
<rect x="86.9" y="261.0" width="6.1" height="89.0" rx="1.5" fill="#22d3ee" opacity="0.7"/>
<rect x="102.9" y="266.6" width="6.1" height="83.4" rx="1.5" fill="#22d3ee" opacity="0.7"/>
<rect x="118.9" y="221.5" width="6.1" height="128.5" rx="1.5" fill="#22d3ee" opacity="0.7"/>
<rect x="134.9" y="238.8" width="6.1" height="111.2" rx="1.5" fill="#22d3ee" opacity="0.7"/>
<rect x="150.9" y="253.5" width="6.1" height="96.5" rx="1.5" fill="#22d3ee" opacity="0.7"/>
<rect x="166.9" y="229.4" width="6.1" height="120.6" rx="1.5" fill="#22d3ee" opacity="0.7"/>
<rect x="182.9" y="241.0" width="6.1" height="109.0" rx="1.5" fill="#22d3ee" opacity="0.7"/>
<rect x="198.9" y="236.1" width="6.1" height="113.9" rx="1.5" fill="#22d3ee" opacity="0.7"/>
<rect x="214.9" y="241.2" width="6.1" height="108.8" rx="1.5" fill="#22d3ee" opacity="0.7"/>
<rect x="230.9" y="218.3" width="6.1" height="131.7" rx="1.5" fill="#22d3ee" opacity="0.7"/>
<rect x="246.9" y="225.8" width="6.1" height="124.2" rx="1.5" fill="#22d3ee" opacity="0.7"/>
<rect x="262.9" y="226.9" width="6.1" height="123.1" rx="1.5" fill="#22d3ee" opacity="0.7"/>
<rect x="278.9" y="219.7" width="6.1" height="130.3" rx="1.5" fill="#22d3ee" opacity="0.7"/>
<rect x="294.9" y="233.0" width="6.1" height="117.0" rx="1.5" fill="#22d3ee" opacity="0.7"/>
<rect x="310.9" y="239.4" width="6.1" height="110.6" rx="1.5" fill="#22d3ee" opacity="0.7"/>
<rect x="326.9" y="229.6" width="6.1" height="120.4" rx="1.5" fill="#22d3ee" opacity="0.7"/>
<rect x="342.9" y="228.9" width="6.1" height="121.1" rx="1.5" fill="#22d3ee" opacity="0.7"/>
<rect x="358.9" y="228.9" width="6.1" height="121.1" rx="1.5" fill="#22d3ee" opacity="0.7"/>
<rect x="374.9" y="256.9" width="6.1" height="93.1" rx="1.5" fill="#22d3ee" opacity="0.7"/>
<rect x="390.9" y="273.0" width="6.1" height="77.0" rx="1.5" fill="#22d3ee" opacity="0.7"/>
<rect x="406.9" y="264.2" width="6.1" height="85.8" rx="1.5" fill="#22d3ee" opacity="0.7"/>
<rect x="422.9" y="257.0" width="6.1" height="93.0" rx="1.5" fill="#22d3ee" opacity="0.7"/>
<rect x="438.9" y="236.5" width="6.1" height="113.5" rx="1.5" fill="#22d3ee" opacity="0.7"/>
<rect x="454.9" y="240.4" width="6.1" height="109.6" rx="1.5" fill="#22d3ee" opacity="0.7"/>
<rect x="470.9" y="196.5" width="6.1" height="153.5" rx="1.5" fill="#22d3ee" opacity="0.7"/>
<rect x="486.9" y="261.5" width="6.1" height="88.5" rx="1.5" fill="#22d3ee" opacity="0.7"/>
<rect x="502.9" y="257.2" width="6.1" height="92.8" rx="1.5" fill="#22d3ee" opacity="0.7"/>
<rect x="518.9" y="267.3" width="6.1" height="82.7" rx="1.5" fill="#22d3ee" opacity="0.7"/>
<rect x="534.9" y="256.8" width="6.1" height="93.2" rx="1.5" fill="#22d3ee" opacity="0.7"/>
<rect x="550.9" y="236.0" width="6.1" height="114.0" rx="1.5" fill="#22d3ee" opacity="0.7"/>
<rect x="566.9" y="251.0" width="6.1" height="99.0" rx="1.5" fill="#22d3ee" opacity="0.7"/>
<rect x="582.9" y="198.0" width="6.1" height="152.0" rx="1.5" fill="#22d3ee" opacity="0.7"/>
<rect x="598.9" y="240.8" width="6.1" height="109.2" rx="1.5" fill="#22d3ee" opacity="0.7"/>
<rect x="614.9" y="224.4" width="6.1" height="125.6" rx="1.5" fill="#22d3ee" opacity="0.7"/>
<rect x="630.9" y="232.5" width="6.1" height="117.5" rx="1.5" fill="#22d3ee" opacity="0.7"/>
<rect x="646.9" y="242.4" width="6.1" height="107.6" rx="1.5" fill="#22d3ee" opacity="0.7"/>
<rect x="662.9" y="238.4" width="6.1" height="111.6" rx="1.5" fill="#22d3ee" opacity="0.7"/>
<rect x="678.9" y="237.2" width="6.1" height="112.8" rx="1.5" fill="#22d3ee" opacity="0.7"/>
<rect x="694.9" y="219.4" width="6.1" height="130.6" rx="1.5" fill="#22d3ee" opacity="0.7"/>
<rect x="710.9" y="218.3" width="6.1" height="131.7" rx="1.5" fill="#22d3ee" opacity="0.7"/>
<rect x="726.9" y="263.6" width="6.1" height="86.4" rx="1.5" fill="#22d3ee" opacity="0.7"/>
<rect x="742.9" y="273.7" width="6.1" height="76.3" rx="1.5" fill="#22d3ee" opacity="0.7"/>
<rect x="758.9" y="258.1" width="6.1" height="91.9" rx="1.5" fill="#22d3ee" opacity="0.7"/>
<rect x="774.9" y="246.0" width="6.1" height="104.0" rx="1.5" fill="#22d3ee" opacity="0.7"/>
<rect x="790.9" y="238.3" width="6.1" height="111.7" rx="1.5" fill="#22d3ee" opacity="0.7"/>
<rect x="806.9" y="209.8" width="6.1" height="140.2" rx="1.5" fill="#22d3ee" opacity="0.7"/>
<rect x="822.9" y="238.3" width="6.1" height="111.7" rx="1.5" fill="#22d3ee" opacity="0.7"/>
<rect x="838.9" y="224.9" width="6.1" height="125.1" rx="1.5" fill="#22d3ee" opacity="0.7"/>
<rect x="854.9" y="235.3" width="6.1" height="114.7" rx="1.5" fill="#22d3ee" opacity="0.7"/>
<rect x="79.0" y="200.7" width="6.1" height="149.3" rx="1.5" fill="#a78bfa" opacity="0.6"/>
<rect x="95.0" y="194.3" width="6.1" height="155.7" rx="1.5" fill="#a78bfa" opacity="0.6"/>
<rect x="111.0" y="190.4" width="6.1" height="159.6" rx="1.5" fill="#a78bfa" opacity="0.6"/>
<rect x="127.0" y="95.6" width="6.1" height="254.4" rx="1.5" fill="#a78bfa" opacity="0.6"/>
<rect x="143.0" y="172.5" width="6.1" height="177.5" rx="1.5" fill="#a78bfa" opacity="0.6"/>
<rect x="159.0" y="191.8" width="6.1" height="158.2" rx="1.5" fill="#a78bfa" opacity="0.6"/>
<rect x="175.0" y="183.8" width="6.1" height="166.2" rx="1.5" fill="#a78bfa" opacity="0.6"/>
<rect x="191.0" y="197.1" width="6.1" height="152.9" rx="1.5" fill="#a78bfa" opacity="0.6"/>
<rect x="207.0" y="195.6" width="6.1" height="154.4" rx="1.5" fill="#a78bfa" opacity="0.6"/>
<rect x="223.0" y="189.5" width="6.1" height="160.5" rx="1.5" fill="#a78bfa" opacity="0.6"/>
<rect x="239.0" y="103.9" width="6.1" height="246.1" rx="1.5" fill="#a78bfa" opacity="0.6"/>
<rect x="255.0" y="165.6" width="6.1" height="184.4" rx="1.5" fill="#a78bfa" opacity="0.6"/>
<rect x="271.0" y="193.7" width="6.1" height="156.3" rx="1.5" fill="#a78bfa" opacity="0.6"/>
<rect x="287.0" y="189.0" width="6.1" height="161.0" rx="1.5" fill="#a78bfa" opacity="0.6"/>
<rect x="303.0" y="200.4" width="6.1" height="149.6" rx="1.5" fill="#a78bfa" opacity="0.6"/>
<rect x="319.0" y="197.9" width="6.1" height="152.1" rx="1.5" fill="#a78bfa" opacity="0.6"/>
<rect x="335.0" y="195.9" width="6.1" height="154.1" rx="1.5" fill="#a78bfa" opacity="0.6"/>
<rect x="351.0" y="153.5" width="6.1" height="196.5" rx="1.5" fill="#a78bfa" opacity="0.6"/>
<rect x="367.0" y="130.0" width="6.1" height="220.0" rx="1.5" fill="#a78bfa" opacity="0.6"/>
<rect x="383.0" y="191.9" width="6.1" height="158.1" rx="1.5" fill="#a78bfa" opacity="0.6"/>
<rect x="399.0" y="185.0" width="6.1" height="165.0" rx="1.5" fill="#a78bfa" opacity="0.6"/>
<rect x="415.0" y="195.1" width="6.1" height="154.9" rx="1.5" fill="#a78bfa" opacity="0.6"/>
<rect x="431.0" y="194.2" width="6.1" height="155.8" rx="1.5" fill="#a78bfa" opacity="0.6"/>
<rect x="447.0" y="193.5" width="6.1" height="156.5" rx="1.5" fill="#a78bfa" opacity="0.6"/>
<rect x="463.0" y="192.1" width="6.1" height="157.9" rx="1.5" fill="#a78bfa" opacity="0.6"/>
<rect x="479.0" y="92.5" width="6.1" height="257.5" rx="1.5" fill="#a78bfa" opacity="0.6"/>
<rect x="495.0" y="192.4" width="6.1" height="157.6" rx="1.5" fill="#a78bfa" opacity="0.6"/>
<rect x="511.0" y="188.0" width="6.1" height="162.0" rx="1.5" fill="#a78bfa" opacity="0.6"/>
<rect x="527.0" y="197.2" width="6.1" height="152.8" rx="1.5" fill="#a78bfa" opacity="0.6"/>
<rect x="543.0" y="196.7" width="6.1" height="153.3" rx="1.5" fill="#a78bfa" opacity="0.6"/>
<rect x="559.0" y="194.6" width="6.1" height="155.4" rx="1.5" fill="#a78bfa" opacity="0.6"/>
<rect x="575.0" y="196.2" width="6.1" height="153.8" rx="1.5" fill="#a78bfa" opacity="0.6"/>
<rect x="591.0" y="79.6" width="6.1" height="270.4" rx="1.5" fill="#a78bfa" opacity="0.6"/>
<rect x="607.0" y="185.7" width="6.1" height="164.3" rx="1.5" fill="#a78bfa" opacity="0.6"/>
<rect x="623.0" y="185.2" width="6.1" height="164.8" rx="1.5" fill="#a78bfa" opacity="0.6"/>
<rect x="639.0" y="191.7" width="6.1" height="158.3" rx="1.5" fill="#a78bfa" opacity="0.6"/>
<rect x="655.0" y="192.7" width="6.1" height="157.3" rx="1.5" fill="#a78bfa" opacity="0.6"/>
<rect x="671.0" y="195.3" width="6.1" height="154.7" rx="1.5" fill="#a78bfa" opacity="0.6"/>
<rect x="687.0" y="192.3" width="6.1" height="157.7" rx="1.5" fill="#a78bfa" opacity="0.6"/>
<rect x="703.0" y="82.3" width="6.1" height="267.7" rx="1.5" fill="#a78bfa" opacity="0.6"/>
<rect x="719.0" y="186.3" width="6.1" height="163.7" rx="1.5" fill="#a78bfa" opacity="0.6"/>
<rect x="735.0" y="186.5" width="6.1" height="163.5" rx="1.5" fill="#a78bfa" opacity="0.6"/>
<rect x="751.0" y="191.7" width="6.1" height="158.3" rx="1.5" fill="#a78bfa" opacity="0.6"/>
<rect x="767.0" y="198.0" width="6.1" height="152.0" rx="1.5" fill="#a78bfa" opacity="0.6"/>
<rect x="783.0" y="194.3" width="6.1" height="155.7" rx="1.5" fill="#a78bfa" opacity="0.6"/>
<rect x="799.0" y="194.2" width="6.1" height="155.8" rx="1.5" fill="#a78bfa" opacity="0.6"/>
<rect x="815.0" y="86.4" width="6.1" height="263.6" rx="1.5" fill="#a78bfa" opacity="0.6"/>
<rect x="831.0" y="187.7" width="6.1" height="162.3" rx="1.5" fill="#a78bfa" opacity="0.6"/>
<rect x="847.0" y="186.1" width="6.1" height="163.9" rx="1.5" fill="#a78bfa" opacity="0.6"/>
<rect x="863.0" y="189.9" width="6.1" height="160.1" rx="1.5" fill="#a78bfa" opacity="0.6"/>
<polyline points="78.0,253.4 94.0,261.0 110.0,266.6 126.0,221.5 142.0,238.8 158.0,253.5 174.0,229.4 190.0,241.0 206.0,236.1 222.0,241.2 238.0,218.3 254.0,225.8 270.0,226.9 286.0,219.7 302.0,233.0 318.0,239.4 334.0,229.6 350.0,228.9 366.0,228.9 382.0,256.9 398.0,273.0 414.0,264.2 430.0,257.0 446.0,236.5 462.0,240.4 478.0,196.5 494.0,261.5 510.0,257.2 526.0,267.3 542.0,256.8 558.0,236.0 574.0,251.0 590.0,198.0 606.0,240.8 622.0,224.4 638.0,232.5 654.0,242.4 670.0,238.4 686.0,237.2 702.0,219.4 718.0,218.3 734.0,263.6 750.0,273.7 766.0,258.1 782.0,246.0 798.0,238.3 814.0,209.8 830.0,238.3 846.0,224.9 862.0,235.3" fill="none" stroke="#22d3ee" stroke-width="1.5" opacity="0.9"/>
<circle cx="78.0" cy="253.4" r="2" fill="#22d3ee"/>
<circle cx="94.0" cy="261.0" r="2" fill="#22d3ee"/>
<circle cx="110.0" cy="266.6" r="2" fill="#22d3ee"/>
<circle cx="126.0" cy="221.5" r="2" fill="#22d3ee"/>
<circle cx="142.0" cy="238.8" r="2" fill="#22d3ee"/>
<circle cx="158.0" cy="253.5" r="2" fill="#22d3ee"/>
<circle cx="174.0" cy="229.4" r="2" fill="#22d3ee"/>
<circle cx="190.0" cy="241.0" r="2" fill="#22d3ee"/>
<circle cx="206.0" cy="236.1" r="2" fill="#22d3ee"/>
<circle cx="222.0" cy="241.2" r="2" fill="#22d3ee"/>
<circle cx="238.0" cy="218.3" r="2" fill="#22d3ee"/>
<circle cx="254.0" cy="225.8" r="2" fill="#22d3ee"/>
<circle cx="270.0" cy="226.9" r="2" fill="#22d3ee"/>
<circle cx="286.0" cy="219.7" r="2" fill="#22d3ee"/>
<circle cx="302.0" cy="233.0" r="2" fill="#22d3ee"/>
<circle cx="318.0" cy="239.4" r="2" fill="#22d3ee"/>
<circle cx="334.0" cy="229.6" r="2" fill="#22d3ee"/>
<circle cx="350.0" cy="228.9" r="2" fill="#22d3ee"/>
<circle cx="366.0" cy="228.9" r="2" fill="#22d3ee"/>
<circle cx="382.0" cy="256.9" r="2" fill="#22d3ee"/>
<circle cx="398.0" cy="273.0" r="2" fill="#22d3ee"/>
<circle cx="414.0" cy="264.2" r="2" fill="#22d3ee"/>
<circle cx="430.0" cy="257.0" r="2" fill="#22d3ee"/>
<circle cx="446.0" cy="236.5" r="2" fill="#22d3ee"/>
<circle cx="462.0" cy="240.4" r="2" fill="#22d3ee"/>
<circle cx="478.0" cy="196.5" r="2" fill="#22d3ee"/>
<circle cx="494.0" cy="261.5" r="2" fill="#22d3ee"/>
<circle cx="510.0" cy="257.2" r="2" fill="#22d3ee"/>
<circle cx="526.0" cy="267.3" r="2" fill="#22d3ee"/>
<circle cx="542.0" cy="256.8" r="2" fill="#22d3ee"/>
<circle cx="558.0" cy="236.0" r="2" fill="#22d3ee"/>
<circle cx="574.0" cy="251.0" r="2" fill="#22d3ee"/>
<circle cx="590.0" cy="198.0" r="2" fill="#22d3ee"/>
<circle cx="606.0" cy="240.8" r="2" fill="#22d3ee"/>
<circle cx="622.0" cy="224.4" r="2" fill="#22d3ee"/>
<circle cx="638.0" cy="232.5" r="2" fill="#22d3ee"/>
<circle cx="654.0" cy="242.4" r="2" fill="#22d3ee"/>
<circle cx="670.0" cy="238.4" r="2" fill="#22d3ee"/>
<circle cx="686.0" cy="237.2" r="2" fill="#22d3ee"/>
<circle cx="702.0" cy="219.4" r="2" fill="#22d3ee"/>
<circle cx="718.0" cy="218.3" r="2" fill="#22d3ee"/>
<circle cx="734.0" cy="263.6" r="2" fill="#22d3ee"/>
<circle cx="750.0" cy="273.7" r="2" fill="#22d3ee"/>
<circle cx="766.0" cy="258.1" r="2" fill="#22d3ee"/>
<circle cx="782.0" cy="246.0" r="2" fill="#22d3ee"/>
<circle cx="798.0" cy="238.3" r="2" fill="#22d3ee"/>
<circle cx="814.0" cy="209.8" r="2" fill="#22d3ee"/>
<circle cx="830.0" cy="238.3" r="2" fill="#22d3ee"/>
<circle cx="846.0" cy="224.9" r="2" fill="#22d3ee"/>
<circle cx="862.0" cy="235.3" r="2" fill="#22d3ee"/>
<polyline points="78.0,200.7 94.0,194.3 110.0,190.4 126.0,95.6 142.0,172.5 158.0,191.8 174.0,183.8 190.0,197.0 206.0,195.6 222.0,189.5 238.0,103.9 254.0,165.6 270.0,193.7 286.0,189.0 302.0,200.4 318.0,197.9 334.0,195.9 350.0,153.5 366.0,130.0 382.0,191.9 398.0,185.0 414.0,195.1 430.0,194.2 446.0,193.5 462.0,192.1 478.0,92.5 494.0,192.4 510.0,188.0 526.0,197.2 542.0,196.7 558.0,194.6 574.0,196.2 590.0,79.6 606.0,185.7 622.0,185.2 638.0,191.7 654.0,192.7 670.0,195.3 686.0,192.3 702.0,82.3 718.0,186.3 734.0,186.5 750.0,191.7 766.0,198.0 782.0,194.3 798.0,194.2 814.0,86.4 830.0,187.7 846.0,186.1 862.0,189.9" fill="none" stroke="#a78bfa" stroke-width="1.5" opacity="0.9"/>
<circle cx="78.0" cy="200.7" r="2" fill="#a78bfa"/>
<circle cx="94.0" cy="194.3" r="2" fill="#a78bfa"/>
<circle cx="110.0" cy="190.4" r="2" fill="#a78bfa"/>
<circle cx="126.0" cy="95.6" r="2" fill="#a78bfa"/>
<circle cx="142.0" cy="172.5" r="2" fill="#a78bfa"/>
<circle cx="158.0" cy="191.8" r="2" fill="#a78bfa"/>
<circle cx="174.0" cy="183.8" r="2" fill="#a78bfa"/>
<circle cx="190.0" cy="197.0" r="2" fill="#a78bfa"/>
<circle cx="206.0" cy="195.6" r="2" fill="#a78bfa"/>
<circle cx="222.0" cy="189.5" r="2" fill="#a78bfa"/>
<circle cx="238.0" cy="103.9" r="2" fill="#a78bfa"/>
<circle cx="254.0" cy="165.6" r="2" fill="#a78bfa"/>
<circle cx="270.0" cy="193.7" r="2" fill="#a78bfa"/>
<circle cx="286.0" cy="189.0" r="2" fill="#a78bfa"/>
<circle cx="302.0" cy="200.4" r="2" fill="#a78bfa"/>
<circle cx="318.0" cy="197.9" r="2" fill="#a78bfa"/>
<circle cx="334.0" cy="195.9" r="2" fill="#a78bfa"/>
<circle cx="350.0" cy="153.5" r="2" fill="#a78bfa"/>
<circle cx="366.0" cy="130.0" r="2" fill="#a78bfa"/>
<circle cx="382.0" cy="191.9" r="2" fill="#a78bfa"/>
<circle cx="398.0" cy="185.0" r="2" fill="#a78bfa"/>
<circle cx="414.0" cy="195.1" r="2" fill="#a78bfa"/>
<circle cx="430.0" cy="194.2" r="2" fill="#a78bfa"/>
<circle cx="446.0" cy="193.5" r="2" fill="#a78bfa"/>
<circle cx="462.0" cy="192.1" r="2" fill="#a78bfa"/>
<circle cx="478.0" cy="92.5" r="2" fill="#a78bfa"/>
<circle cx="494.0" cy="192.4" r="2" fill="#a78bfa"/>
<circle cx="510.0" cy="188.0" r="2" fill="#a78bfa"/>
<circle cx="526.0" cy="197.2" r="2" fill="#a78bfa"/>
<circle cx="542.0" cy="196.7" r="2" fill="#a78bfa"/>
<circle cx="558.0" cy="194.6" r="2" fill="#a78bfa"/>
<circle cx="574.0" cy="196.2" r="2" fill="#a78bfa"/>
<circle cx="590.0" cy="79.6" r="2" fill="#a78bfa"/>
<circle cx="606.0" cy="185.7" r="2" fill="#a78bfa"/>
<circle cx="622.0" cy="185.2" r="2" fill="#a78bfa"/>
<circle cx="638.0" cy="191.7" r="2" fill="#a78bfa"/>
<circle cx="654.0" cy="192.7" r="2" fill="#a78bfa"/>
<circle cx="670.0" cy="195.3" r="2" fill="#a78bfa"/>
<circle cx="686.0" cy="192.3" r="2" fill="#a78bfa"/>
<circle cx="702.0" cy="82.3" r="2" fill="#a78bfa"/>
<circle cx="718.0" cy="186.3" r="2" fill="#a78bfa"/>
<circle cx="734.0" cy="186.5" r="2" fill="#a78bfa"/>
<circle cx="750.0" cy="191.7" r="2" fill="#a78bfa"/>
<circle cx="766.0" cy="198.0" r="2" fill="#a78bfa"/>
<circle cx="782.0" cy="194.3" r="2" fill="#a78bfa"/>
<circle cx="798.0" cy="194.2" r="2" fill="#a78bfa"/>
<circle cx="814.0" cy="86.4" r="2" fill="#a78bfa"/>
<circle cx="830.0" cy="187.7" r="2" fill="#a78bfa"/>
<circle cx="846.0" cy="186.1" r="2" fill="#a78bfa"/>
<circle cx="862.0" cy="189.9" r="2" fill="#a78bfa"/>
<rect x="80" y="60" width="290" height="56" rx="6" fill="#16213e" opacity="0.92"/>
<text x="88" y="72" font-size="8" fill="#22d3ee" font-weight="bold">amd64 i7-12700</text>
<text x="88" y="83" font-size="8" fill="#22d3ee">batch total p50=1514ms  per-embed p50=15.1ms σ=2.4ms</text>
<text x="88" y="96" font-size="8" fill="#a78bfa" font-weight="bold">arm64 CIX P1 CD8160</text>
<text x="88" y="107" font-size="8" fill="#a78bfa">batch total p50=2146ms  per-embed p50=21.5ms σ=4.7ms</text>
<rect x="690" y="60" width="170" height="44" rx="6" fill="#16213e" opacity="0.92"/>
<rect x="698" y="69" width="10" height="8" rx="1" fill="#22d3ee" opacity="0.7"/>
<text x="712" y="77" font-size="8" fill="#22d3ee">amd64 batch total</text>
<rect x="698" y="83" width="10" height="8" rx="1" fill="#a78bfa" opacity="0.6"/>
<text x="712" y="91" font-size="8" fill="#a78bfa">arm64 batch total</text>
<line x1="698" y1="99" x2="708" y2="99" stroke="#60a5fa" stroke-width="1.5"/>
<circle cx="703" cy="99" r="2" fill="#60a5fa"/>
<text x="712" y="102" font-size="8" fill="#60a5fa">per-embed avg (right axis)</text>
</svg>