<svg xmlns="http://www.w3.org/2000/svg" viewBox="0 0 900 400" font-family="-apple-system,Helvetica,Arial,sans-serif">
<rect width="900" height="400" rx="12" fill="#1a1a2e"/>
<text x="450" y="25" text-anchor="middle" font-size="14" font-weight="bold" fill="#e0e0e0">Batch-100 latency over time: 50 consecutive batches</text>
<text x="450" y="42" text-anchor="middle" font-size="10" fill="#888">Each batch = 100 sequential embeds from Northwind DB · 708 unique texts cycling</text>
<line x1="70" y1="345.0" x2="870" y2="345.0" stroke="#333" stroke-width="0.5" stroke-dasharray="4,4"/>
<text x="62" y="348.0" text-anchor="end" font-size="8" fill="#888">0s</text>
<line x1="70" y1="308.125" x2="870" y2="308.125" stroke="#333" stroke-width="0.5" stroke-dasharray="4,4"/>
<text x="62" y="311.125" text-anchor="end" font-size="7" fill="#555">500</text>
<line x1="70" y1="271.25" x2="870" y2="271.25" stroke="#333" stroke-width="0.5" stroke-dasharray="4,4"/>
<text x="62" y="274.25" text-anchor="end" font-size="8" fill="#888">1s</text>
<line x1="70" y1="234.375" x2="870" y2="234.375" stroke="#333" stroke-width="0.5" stroke-dasharray="4,4"/>
<text x="62" y="237.375" text-anchor="end" font-size="7" fill="#555">1500</text>
<line x1="70" y1="197.5" x2="870" y2="197.5" stroke="#333" stroke-width="0.5" stroke-dasharray="4,4"/>
<text x="62" y="200.5" text-anchor="end" font-size="8" fill="#888">2s</text>
<line x1="70" y1="160.625" x2="870" y2="160.625" stroke="#333" stroke-width="0.5" stroke-dasharray="4,4"/>
<text x="62" y="163.625" text-anchor="end" font-size="7" fill="#555">2500</text>
<line x1="70" y1="123.75" x2="870" y2="123.75" stroke="#333" stroke-width="0.5" stroke-dasharray="4,4"/>
<text x="62" y="126.75" text-anchor="end" font-size="8" fill="#888">3s</text>
<line x1="70" y1="86.875" x2="870" y2="86.875" stroke="#333" stroke-width="0.5" stroke-dasharray="4,4"/>
<text x="62" y="89.875" text-anchor="end" font-size="7" fill="#555">3500</text>
<line x1="70" y1="50.0" x2="870" y2="50.0" stroke="#333" stroke-width="0.5" stroke-dasharray="4,4"/>
<text x="62" y="53.0" text-anchor="end" font-size="8" fill="#888">4s</text>
<text x="25" y="197" text-anchor="middle" font-size="9" fill="#888" transform="rotate(-90,25,197)">batch total (ms)</text>
<text x="70.0" y="360" text-anchor="middle" font-size="8" fill="#888">0</text>
<text x="230.0" y="360" text-anchor="middle" font-size="8" fill="#888">10</text>
<text x="390.0" y="360" text-anchor="middle" font-size="8" fill="#888">20</text>
<text x="550.0" y="360" text-anchor="middle" font-size="8" fill="#888">30</text>
<text x="710.0" y="360" text-anchor="middle" font-size="8" fill="#888">40</text>
<text x="870.0" y="360" text-anchor="middle" font-size="8" fill="#888">50</text>
<text x="470" y="380" text-anchor="middle" font-size="9" fill="#888">batch index</text>
<text x="878" y="348.0" text-anchor="start" font-size="7" fill="#60a5fa">0ms</text>
<text x="878" y="274.25" text-anchor="start" font-size="7" fill="#60a5fa">10ms</text>
<text x="878" y="200.5" text-anchor="start" font-size="7" fill="#60a5fa">20ms</text>
<text x="878" y="126.75" text-anchor="start" font-size="7" fill="#60a5fa">30ms</text>
<text x="878" y="53.0" text-anchor="start" font-size="7" fill="#60a5fa">40ms</text>
<text x="905" y="197" text-anchor="middle" font-size="8" fill="#60a5fa" transform="rotate(90,905,197)">per-embed avg</text>
<rect x="70.9" y="257.3" width="6.1" height="87.7" rx="1.5" fill="#22d3ee" opacity="0.7"/>
<rect x="86.9" y="238.8" width="6.1" height="106.2" rx="1.5" fill="#22d3ee" opacity="0.7"/>
<rect x="102.9" y="232.7" width="6.1" height="112.3" rx="1.5" fill="#22d3ee" opacity="0.7"/>
<rect x="118.9" y="220.5" width="6.1" height="124.5" rx="1.5" fill="#22d3ee" opacity="0.7"/>
<rect x="134.9" y="228.1" width="6.1" height="116.9" rx="1.5" fill="#22d3ee" opacity="0.7"/>
<rect x="150.9" y="223.7" width="6.1" height="121.3" rx="1.5" fill="#22d3ee" opacity="0.7"/>
<rect x="166.9" y="261.0" width="6.1" height="84.0" rx="1.5" fill="#22d3ee" opacity="0.7"/>
<rect x="182.9" y="272.9" width="6.1" height="72.1" rx="1.5" fill="#22d3ee" opacity="0.7"/>
<rect x="198.9" y="243.5" width="6.1" height="101.5" rx="1.5" fill="#22d3ee" opacity="0.7"/>
<rect x="214.9" y="247.4" width="6.1" height="97.6" rx="1.5" fill="#22d3ee" opacity="0.7"/>
<rect x="230.9" y="215.7" width="6.1" height="129.3" rx="1.5" fill="#22d3ee" opacity="0.7"/>
<rect x="246.9" y="218.6" width="6.1" height="126.4" rx="1.5" fill="#22d3ee" opacity="0.7"/>
<rect x="262.9" y="236.8" width="6.1" height="108.2" rx="1.5" fill="#22d3ee" opacity="0.7"/>
<rect x="278.9" y="254.1" width="6.1" height="90.9" rx="1.5" fill="#22d3ee" opacity="0.7"/>
<rect x="294.9" y="263.8" width="6.1" height="81.2" rx="1.5" fill="#22d3ee" opacity="0.7"/>
<rect x="310.9" y="245.8" width="6.1" height="99.2" rx="1.5" fill="#22d3ee" opacity="0.7"/>
<rect x="326.9" y="246.1" width="6.1" height="98.9" rx="1.5" fill="#22d3ee" opacity="0.7"/>
<rect x="342.9" y="238.8" width="6.1" height="106.2" rx="1.5" fill="#22d3ee" opacity="0.7"/>
<rect x="358.9" y="237.7" width="6.1" height="107.3" rx="1.5" fill="#22d3ee" opacity="0.7"/>
<rect x="374.9" y="253.4" width="6.1" height="91.6" rx="1.5" fill="#22d3ee" opacity="0.7"/>
<rect x="390.9" y="264.7" width="6.1" height="80.3" rx="1.5" fill="#22d3ee" opacity="0.7"/>
<rect x="406.9" y="268.9" width="6.1" height="76.1" rx="1.5" fill="#22d3ee" opacity="0.7"/>
<rect x="422.9" y="267.4" width="6.1" height="77.6" rx="1.5" fill="#22d3ee" opacity="0.7"/>
<rect x="438.9" y="254.6" width="6.1" height="90.4" rx="1.5" fill="#22d3ee" opacity="0.7"/>
<rect x="454.9" y="248.7" width="6.1" height="96.3" rx="1.5" fill="#22d3ee" opacity="0.7"/>
<rect x="470.9" y="218.9" width="6.1" height="126.1" rx="1.5" fill="#22d3ee" opacity="0.7"/>
<rect x="486.9" y="243.6" width="6.1" height="101.4" rx="1.5" fill="#22d3ee" opacity="0.7"/>
<rect x="502.9" y="234.0" width="6.1" height="111.0" rx="1.5" fill="#22d3ee" opacity="0.7"/>
<rect x="518.9" y="243.2" width="6.1" height="101.8" rx="1.5" fill="#22d3ee" opacity="0.7"/>
<rect x="534.9" y="247.5" width="6.1" height="97.5" rx="1.5" fill="#22d3ee" opacity="0.7"/>
<rect x="550.9" y="272.9" width="6.1" height="72.1" rx="1.5" fill="#22d3ee" opacity="0.7"/>
<rect x="566.9" y="268.2" width="6.1" height="76.8" rx="1.5" fill="#22d3ee" opacity="0.7"/>
<rect x="582.9" y="211.4" width="6.1" height="133.6" rx="1.5" fill="#22d3ee" opacity="0.7"/>
<rect x="598.9" y="241.8" width="6.1" height="103.2" rx="1.5" fill="#22d3ee" opacity="0.7"/>
<rect x="614.9" y="234.7" width="6.1" height="110.3" rx="1.5" fill="#22d3ee" opacity="0.7"/>
<rect x="630.9" y="245.0" width="6.1" height="100.0" rx="1.5" fill="#22d3ee" opacity="0.7"/>
<rect x="646.9" y="246.8" width="6.1" height="98.2" rx="1.5" fill="#22d3ee" opacity="0.7"/>
<rect x="662.9" y="250.3" width="6.1" height="94.7" rx="1.5" fill="#22d3ee" opacity="0.7"/>
<rect x="678.9" y="234.5" width="6.1" height="110.5" rx="1.5" fill="#22d3ee" opacity="0.7"/>
<rect x="694.9" y="211.4" width="6.1" height="133.6" rx="1.5" fill="#22d3ee" opacity="0.7"/>
<rect x="710.9" y="241.1" width="6.1" height="103.9" rx="1.5" fill="#22d3ee" opacity="0.7"/>
<rect x="726.9" y="227.1" width="6.1" height="117.9" rx="1.5" fill="#22d3ee" opacity="0.7"/>
<rect x="742.9" y="235.7" width="6.1" height="109.3" rx="1.5" fill="#22d3ee" opacity="0.7"/>
<rect x="758.9" y="239.5" width="6.1" height="105.5" rx="1.5" fill="#22d3ee" opacity="0.7"/>
<rect x="774.9" y="265.7" width="6.1" height="79.3" rx="1.5" fill="#22d3ee" opacity="0.7"/>
<rect x="790.9" y="267.3" width="6.1" height="77.7" rx="1.5" fill="#22d3ee" opacity="0.7"/>
<rect x="806.9" y="240.8" width="6.1" height="104.2" rx="1.5" fill="#22d3ee" opacity="0.7"/>
<rect x="822.9" y="243.8" width="6.1" height="101.2" rx="1.5" fill="#22d3ee" opacity="0.7"/>
<rect x="838.9" y="248.2" width="6.1" height="96.8" rx="1.5" fill="#22d3ee" opacity="0.7"/>
<rect x="854.9" y="246.8" width="6.1" height="98.2" rx="1.5" fill="#22d3ee" opacity="0.7"/>
<rect x="79.0" y="198.2" width="6.1" height="146.8" rx="1.5" fill="#a78bfa" opacity="0.6"/>
<rect x="95.0" y="191.5" width="6.1" height="153.5" rx="1.5" fill="#a78bfa" opacity="0.6"/>
<rect x="111.0" y="188.2" width="6.1" height="156.8" rx="1.5" fill="#a78bfa" opacity="0.6"/>
<rect x="127.0" y="100.1" width="6.1" height="244.9" rx="1.5" fill="#a78bfa" opacity="0.6"/>
<rect x="143.0" y="170.2" width="6.1" height="174.8" rx="1.5" fill="#a78bfa" opacity="0.6"/>
<rect x="159.0" y="185.5" width="6.1" height="159.5" rx="1.5" fill="#a78bfa" opacity="0.6"/>
<rect x="175.0" y="177.7" width="6.1" height="167.3" rx="1.5" fill="#a78bfa" opacity="0.6"/>
<rect x="191.0" y="190.9" width="6.1" height="154.1" rx="1.5" fill="#a78bfa" opacity="0.6"/>
<rect x="207.0" y="189.6" width="6.1" height="155.4" rx="1.5" fill="#a78bfa" opacity="0.6"/>
<rect x="223.0" y="183.5" width="6.1" height="161.5" rx="1.5" fill="#a78bfa" opacity="0.6"/>
<rect x="239.0" y="103.7" width="6.1" height="241.3" rx="1.5" fill="#a78bfa" opacity="0.6"/>
<rect x="255.0" y="153.0" width="6.1" height="192.0" rx="1.5" fill="#a78bfa" opacity="0.6"/>
<rect x="271.0" y="185.1" width="6.1" height="159.9" rx="1.5" fill="#a78bfa" opacity="0.6"/>
<rect x="287.0" y="180.2" width="6.1" height="164.8" rx="1.5" fill="#a78bfa" opacity="0.6"/>
<rect x="303.0" y="191.9" width="6.1" height="153.1" rx="1.5" fill="#a78bfa" opacity="0.6"/>
<rect x="319.0" y="190.1" width="6.1" height="154.9" rx="1.5" fill="#a78bfa" opacity="0.6"/>
<rect x="335.0" y="187.4" width="6.1" height="157.6" rx="1.5" fill="#a78bfa" opacity="0.6"/>
<rect x="351.0" y="145.4" width="6.1" height="199.6" rx="1.5" fill="#a78bfa" opacity="0.6"/>
<rect x="367.0" y="120.8" width="6.1" height="224.2" rx="1.5" fill="#a78bfa" opacity="0.6"/>
<rect x="383.0" y="189.3" width="6.1" height="155.7" rx="1.5" fill="#a78bfa" opacity="0.6"/>
<rect x="399.0" y="184.3" width="6.1" height="160.7" rx="1.5" fill="#a78bfa" opacity="0.6"/>
<rect x="415.0" y="193.4" width="6.1" height="151.6" rx="1.5" fill="#a78bfa" opacity="0.6"/>
<rect x="431.0" y="193.1" width="6.1" height="151.9" rx="1.5" fill="#a78bfa" opacity="0.6"/>
<rect x="447.0" y="191.8" width="6.1" height="153.2" rx="1.5" fill="#a78bfa" opacity="0.6"/>
<rect x="463.0" y="191.1" width="6.1" height="153.9" rx="1.5" fill="#a78bfa" opacity="0.6"/>
<rect x="479.0" y="82.8" width="6.1" height="262.2" rx="1.5" fill="#a78bfa" opacity="0.6"/>
<rect x="495.0" y="188.1" width="6.1" height="156.9" rx="1.5" fill="#a78bfa" opacity="0.6"/>
<rect x="511.0" y="183.1" width="6.1" height="161.9" rx="1.5" fill="#a78bfa" opacity="0.6"/>
<rect x="527.0" y="193.7" width="6.1" height="151.3" rx="1.5" fill="#a78bfa" opacity="0.6"/>
<rect x="543.0" y="192.6" width="6.1" height="152.4" rx="1.5" fill="#a78bfa" opacity="0.6"/>
<rect x="559.0" y="192.5" width="6.1" height="152.5" rx="1.5" fill="#a78bfa" opacity="0.6"/>
<rect x="575.0" y="192.9" width="6.1" height="152.1" rx="1.5" fill="#a78bfa" opacity="0.6"/>
<rect x="591.0" y="77.8" width="6.1" height="267.2" rx="1.5" fill="#a78bfa" opacity="0.6"/>
<rect x="607.0" y="181.2" width="6.1" height="163.8" rx="1.5" fill="#a78bfa" opacity="0.6"/>
<rect x="623.0" y="181.6" width="6.1" height="163.4" rx="1.5" fill="#a78bfa" opacity="0.6"/>
<rect x="639.0" y="188.0" width="6.1" height="157.0" rx="1.5" fill="#a78bfa" opacity="0.6"/>
<rect x="655.0" y="189.0" width="6.1" height="156.0" rx="1.5" fill="#a78bfa" opacity="0.6"/>
<rect x="671.0" y="191.6" width="6.1" height="153.4" rx="1.5" fill="#a78bfa" opacity="0.6"/>
<rect x="687.0" y="188.7" width="6.1" height="156.3" rx="1.5" fill="#a78bfa" opacity="0.6"/>
<rect x="703.0" y="78.2" width="6.1" height="266.8" rx="1.5" fill="#a78bfa" opacity="0.6"/>
<rect x="719.0" y="182.4" width="6.1" height="162.6" rx="1.5" fill="#a78bfa" opacity="0.6"/>
<rect x="735.0" y="184.4" width="6.1" height="160.6" rx="1.5" fill="#a78bfa" opacity="0.6"/>
<rect x="751.0" y="188.7" width="6.1" height="156.3" rx="1.5" fill="#a78bfa" opacity="0.6"/>
<rect x="767.0" y="191.4" width="6.1" height="153.6" rx="1.5" fill="#a78bfa" opacity="0.6"/>
<rect x="783.0" y="187.6" width="6.1" height="157.4" rx="1.5" fill="#a78bfa" opacity="0.6"/>
<rect x="799.0" y="187.6" width="6.1" height="157.4" rx="1.5" fill="#a78bfa" opacity="0.6"/>
<rect x="815.0" y="83.9" width="6.1" height="261.1" rx="1.5" fill="#a78bfa" opacity="0.6"/>
<rect x="831.0" y="184.8" width="6.1" height="160.2" rx="1.5" fill="#a78bfa" opacity="0.6"/>
<rect x="847.0" y="186.3" width="6.1" height="158.7" rx="1.5" fill="#a78bfa" opacity="0.6"/>
<rect x="863.0" y="189.1" width="6.1" height="155.9" rx="1.5" fill="#a78bfa" opacity="0.6"/>
<polyline points="78.0,257.3 94.0,238.8 110.0,232.7 126.0,220.5 142.0,228.1 158.0,223.7 174.0,261.0 190.0,272.9 206.0,243.5 222.0,247.4 238.0,215.7 254.0,218.6 270.0,236.8 286.0,254.1 302.0,263.8 318.0,245.8 334.0,246.1 350.0,238.8 366.0,237.7 382.0,253.4 398.0,264.7 414.0,268.9 430.0,267.4 446.0,254.6 462.0,248.7 478.0,218.9 494.0,243.6 510.0,234.0 526.0,243.2 542.0,247.5 558.0,272.9 574.0,268.2 590.0,211.4 606.0,241.8 622.0,234.7 638.0,245.0 654.0,246.8 670.0,250.3 686.0,234.5 702.0,211.4 718.0,241.1 734.0,227.1 750.0,235.7 766.0,239.5 782.0,265.7 798.0,267.3 814.0,240.8 830.0,243.8 846.0,248.2 862.0,246.8" fill="none" stroke="#22d3ee" stroke-width="1.5" opacity="0.9"/>
<circle cx="78.0" cy="257.3" r="2" fill="#22d3ee"/>
<circle cx="94.0" cy="238.8" r="2" fill="#22d3ee"/>
<circle cx="110.0" cy="232.7" r="2" fill="#22d3ee"/>
<circle cx="126.0" cy="220.5" r="2" fill="#22d3ee"/>
<circle cx="142.0" cy="228.1" r="2" fill="#22d3ee"/>
<circle cx="158.0" cy="223.7" r="2" fill="#22d3ee"/>
<circle cx="174.0" cy="261.0" r="2" fill="#22d3ee"/>
<circle cx="190.0" cy="272.9" r="2" fill="#22d3ee"/>
<circle cx="206.0" cy="243.5" r="2" fill="#22d3ee"/>
<circle cx="222.0" cy="247.4" r="2" fill="#22d3ee"/>
<circle cx="238.0" cy="215.7" r="2" fill="#22d3ee"/>
<circle cx="254.0" cy="218.6" r="2" fill="#22d3ee"/>
<circle cx="270.0" cy="236.8" r="2" fill="#22d3ee"/>
<circle cx="286.0" cy="254.1" r="2" fill="#22d3ee"/>
<circle cx="302.0" cy="263.8" r="2" fill="#22d3ee"/>
<circle cx="318.0" cy="245.8" r="2" fill="#22d3ee"/>
<circle cx="334.0" cy="246.1" r="2" fill="#22d3ee"/>
<circle cx="350.0" cy="238.8" r="2" fill="#22d3ee"/>
<circle cx="366.0" cy="237.7" r="2" fill="#22d3ee"/>
<circle cx="382.0" cy="253.4" r="2" fill="#22d3ee"/>
<circle cx="398.0" cy="264.7" r="2" fill="#22d3ee"/>
<circle cx="414.0" cy="268.9" r="2" fill="#22d3ee"/>
<circle cx="430.0" cy="267.4" r="2" fill="#22d3ee"/>
<circle cx="446.0" cy="254.6" r="2" fill="#22d3ee"/>
<circle cx="462.0" cy="248.7" r="2" fill="#22d3ee"/>
<circle cx="478.0" cy="218.9" r="2" fill="#22d3ee"/>
<circle cx="494.0" cy="243.6" r="2" fill="#22d3ee"/>
<circle cx="510.0" cy="234.0" r="2" fill="#22d3ee"/>
<circle cx="526.0" cy="243.2" r="2" fill="#22d3ee"/>
<circle cx="542.0" cy="247.5" r="2" fill="#22d3ee"/>
<circle cx="558.0" cy="272.9" r="2" fill="#22d3ee"/>
<circle cx="574.0" cy="268.2" r="2" fill="#22d3ee"/>
<circle cx="590.0" cy="211.4" r="2" fill="#22d3ee"/>
<circle cx="606.0" cy="241.8" r="2" fill="#22d3ee"/>
<circle cx="622.0" cy="234.7" r="2" fill="#22d3ee"/>
<circle cx="638.0" cy="245.0" r="2" fill="#22d3ee"/>
<circle cx="654.0" cy="246.8" r="2" fill="#22d3ee"/>
<circle cx="670.0" cy="250.3" r="2" fill="#22d3ee"/>
<circle cx="686.0" cy="234.5" r="2" fill="#22d3ee"/>
<circle cx="702.0" cy="211.4" r="2" fill="#22d3ee"/>
<circle cx="718.0" cy="241.1" r="2" fill="#22d3ee"/>
<circle cx="734.0" cy="227.1" r="2" fill="#22d3ee"/>
<circle cx="750.0" cy="235.7" r="2" fill="#22d3ee"/>
<circle cx="766.0" cy="239.5" r="2" fill="#22d3ee"/>
<circle cx="782.0" cy="265.7" r="2" fill="#22d3ee"/>
<circle cx="798.0" cy="267.3" r="2" fill="#22d3ee"/>
<circle cx="814.0" cy="240.8" r="2" fill="#22d3ee"/>
<circle cx="830.0" cy="243.8" r="2" fill="#22d3ee"/>
<circle cx="846.0" cy="248.2" r="2" fill="#22d3ee"/>
<circle cx="862.0" cy="246.8" r="2" fill="#22d3ee"/>
<polyline points="78.0,198.2 94.0,191.5 110.0,188.2 126.0,100.1 142.0,170.2 158.0,185.5 174.0,177.7 190.0,190.9 206.0,189.6 222.0,183.5 238.0,103.7 254.0,153.0 270.0,185.1 286.0,180.2 302.0,191.9 318.0,190.1 334.0,187.4 350.0,145.4 366.0,120.9 382.0,189.3 398.0,184.3 414.0,193.4 430.0,193.1 446.0,191.8 462.0,191.1 478.0,82.8 494.0,188.1 510.0,183.1 526.0,193.7 542.0,192.6 558.0,192.5 574.0,192.9 590.0,77.8 606.0,181.2 622.0,181.6 638.0,188.0 654.0,189.0 670.0,191.6 686.0,188.7 702.0,78.2 718.0,182.4 734.0,184.4 750.0,188.7 766.0,191.4 782.0,187.6 798.0,187.6 814.0,83.9 830.0,184.8 846.0,186.3 862.0,189.1" fill="none" stroke="#a78bfa" stroke-width="1.5" opacity="0.9"/>
<circle cx="78.0" cy="198.2" r="2" fill="#a78bfa"/>
<circle cx="94.0" cy="191.5" r="2" fill="#a78bfa"/>
<circle cx="110.0" cy="188.2" r="2" fill="#a78bfa"/>
<circle cx="126.0" cy="100.1" r="2" fill="#a78bfa"/>
<circle cx="142.0" cy="170.2" r="2" fill="#a78bfa"/>
<circle cx="158.0" cy="185.5" r="2" fill="#a78bfa"/>
<circle cx="174.0" cy="177.7" r="2" fill="#a78bfa"/>
<circle cx="190.0" cy="190.9" r="2" fill="#a78bfa"/>
<circle cx="206.0" cy="189.6" r="2" fill="#a78bfa"/>
<circle cx="222.0" cy="183.5" r="2" fill="#a78bfa"/>
<circle cx="238.0" cy="103.7" r="2" fill="#a78bfa"/>
<circle cx="254.0" cy="153.0" r="2" fill="#a78bfa"/>
<circle cx="270.0" cy="185.1" r="2" fill="#a78bfa"/>
<circle cx="286.0" cy="180.2" r="2" fill="#a78bfa"/>
<circle cx="302.0" cy="191.9" r="2" fill="#a78bfa"/>
<circle cx="318.0" cy="190.1" r="2" fill="#a78bfa"/>
<circle cx="334.0" cy="187.4" r="2" fill="#a78bfa"/>
<circle cx="350.0" cy="145.4" r="2" fill="#a78bfa"/>
<circle cx="366.0" cy="120.9" r="2" fill="#a78bfa"/>
<circle cx="382.0" cy="189.3" r="2" fill="#a78bfa"/>
<circle cx="398.0" cy="184.3" r="2" fill="#a78bfa"/>
<circle cx="414.0" cy="193.4" r="2" fill="#a78bfa"/>
<circle cx="430.0" cy="193.1" r="2" fill="#a78bfa"/>
<circle cx="446.0" cy="191.8" r="2" fill="#a78bfa"/>
<circle cx="462.0" cy="191.1" r="2" fill="#a78bfa"/>
<circle cx="478.0" cy="82.8" r="2" fill="#a78bfa"/>
<circle cx="494.0" cy="188.1" r="2" fill="#a78bfa"/>
<circle cx="510.0" cy="183.1" r="2" fill="#a78bfa"/>
<circle cx="526.0" cy="193.7" r="2" fill="#a78bfa"/>
<circle cx="542.0" cy="192.6" r="2" fill="#a78bfa"/>
<circle cx="558.0" cy="192.5" r="2" fill="#a78bfa"/>
<circle cx="574.0" cy="192.9" r="2" fill="#a78bfa"/>
<circle cx="590.0" cy="77.8" r="2" fill="#a78bfa"/>
<circle cx="606.0" cy="181.2" r="2" fill="#a78bfa"/>
<circle cx="622.0" cy="181.6" r="2" fill="#a78bfa"/>
<circle cx="638.0" cy="188.0" r="2" fill="#a78bfa"/>
<circle cx="654.0" cy="189.0" r="2" fill="#a78bfa"/>
<circle cx="670.0" cy="191.6" r="2" fill="#a78bfa"/>
<circle cx="686.0" cy="188.7" r="2" fill="#a78bfa"/>
<circle cx="702.0" cy="78.2" r="2" fill="#a78bfa"/>
<circle cx="718.0" cy="182.4" r="2" fill="#a78bfa"/>
<circle cx="734.0" cy="184.4" r="2" fill="#a78bfa"/>
<circle cx="750.0" cy="188.7" r="2" fill="#a78bfa"/>
<circle cx="766.0" cy="191.4" r="2" fill="#a78bfa"/>
<circle cx="782.0" cy="187.6" r="2" fill="#a78bfa"/>
<circle cx="798.0" cy="187.6" r="2" fill="#a78bfa"/>
<circle cx="814.0" cy="83.9" r="2" fill="#a78bfa"/>
<circle cx="830.0" cy="184.8" r="2" fill="#a78bfa"/>
<circle cx="846.0" cy="186.3" r="2" fill="#a78bfa"/>
<circle cx="862.0" cy="189.1" r="2" fill="#a78bfa"/>
<line x1="70" y1="243.72281249999997" x2="870" y2="243.72281249999997" stroke="#22d3ee" stroke-width="0.8" stroke-dasharray="4,3" opacity="0.5"/>
<line x1="70" y1="187.565875" x2="870" y2="187.565875" stroke="#a78bfa" stroke-width="0.8" stroke-dasharray="4,3" opacity="0.5"/>
<rect x="80" y="55" width="290" height="56" rx="6" fill="#16213e" opacity="0.92"/>
<text x="88" y="67" font-size="8" fill="#22d3ee" font-weight="bold">amd64 i7-12700</text>
<text x="88" y="78" font-size="8" fill="#22d3ee">batch total: p50=1373ms  per-embed: p50=13.7ms σ=2.2ms</text>
<text x="88" y="91" font-size="8" fill="#a78bfa" font-weight="bold">arm64 CIX P1 CD8160</text>
<text x="88" y="102" font-size="8" fill="#a78bfa">batch total: p50=2135ms  per-embed: p50=21.3ms σ=4.7ms</text>
<rect x="690" y="55" width="170" height="44" rx="6" fill="#16213e" opacity="0.92"/>
<rect x="698" y="64" width="10" height="8" rx="1" fill="#22d3ee" opacity="0.7"/>
<text x="712" y="72" font-size="8" fill="#22d3ee">amd64 batch total</text>
<rect x="698" y="78" width="10" height="8" rx="1" fill="#a78bfa" opacity="0.6"/>
<text x="712" y="86" font-size="8" fill="#a78bfa">arm64 batch total</text>
<line x1="698" y1="94" x2="708" y2="94" stroke="#60a5fa" stroke-width="1.5"/>
<circle cx="703" cy="94" r="2" fill="#60a5fa"/>
<text x="712" y="97" font-size="8" fill="#60a5fa">per-embed avg (right axis)</text>
</svg>