<svg xmlns="http://www.w3.org/2000/svg" viewBox="0 0 900 560" font-family="-apple-system,Helvetica,Arial,sans-serif">
  <defs>
    <linearGradient id="g1" x1="0" y1="0" x2="0" y2="1"><stop offset="0%" stop-color="#fb923c"/><stop offset="100%" stop-color="#ea580c"/></linearGradient>
    <linearGradient id="g2" x1="0" y1="0" x2="0" y2="1"><stop offset="0%" stop-color="#4ade80"/><stop offset="100%" stop-color="#16a34a"/></linearGradient>
    <linearGradient id="g3" x1="0" y1="0" x2="0" y2="1"><stop offset="0%" stop-color="#22d3ee"/><stop offset="100%" stop-color="#0891b2"/></linearGradient>
    <linearGradient id="g4" x1="0" y1="0" x2="0" y2="1"><stop offset="0%" stop-color="#a78bfa"/><stop offset="100%" stop-color="#7c3aed"/></linearGradient>
  </defs>

  <rect width="900" height="560" rx="12" fill="#1a1a2e"/>

  <text x="450" y="30" text-anchor="middle" font-size="16" font-weight="bold" fill="#e0e0e0">GTE-Go: flat-latency embeddings — 12 allocs, zero GC pressure</text>

  <!-- Summary cards -->
  <rect x="20" y="44" width="128" height="46" rx="8" fill="#16213e"/>
  <text x="84" y="60" text-anchor="middle" font-size="9" fill="#888">ALLOCS/EMBED</text>
  <text x="84" y="78" text-anchor="middle" font-size="17" font-weight="bold" fill="#4ade80">12</text>

  <rect x="160" y="44" width="128" height="46" rx="8" fill="#16213e"/>
  <text x="224" y="60" text-anchor="middle" font-size="9" fill="#888">GC PRESSURE</text>
  <text x="224" y="78" text-anchor="middle" font-size="17" font-weight="bold" fill="#4ade80">18 KB/s</text>

  <rect x="300" y="44" width="128" height="46" rx="8" fill="#16213e"/>
  <text x="364" y="60" text-anchor="middle" font-size="9" fill="#888">GOROUTINE CHURN</text>
  <text x="364" y="78" text-anchor="middle" font-size="17" font-weight="bold" fill="#4ade80">0</text>

  <rect x="440" y="44" width="128" height="46" rx="8" fill="#16213e"/>
  <text x="504" y="60" text-anchor="middle" font-size="9" fill="#888">AMD64 (GATHER)</text>
  <text x="504" y="78" text-anchor="middle" font-size="17" font-weight="bold" fill="#a78bfa">10 ms</text>

  <rect x="580" y="44" width="128" height="46" rx="8" fill="#16213e"/>
  <text x="644" y="60" text-anchor="middle" font-size="9" fill="#888">ARM64 (NEON)</text>
  <text x="644" y="78" text-anchor="middle" font-size="17" font-weight="bold" fill="#a78bfa">20 ms</text>

  <rect x="720" y="44" width="160" height="46" rx="8" fill="#16213e"/>
  <text x="800" y="60" text-anchor="middle" font-size="9" fill="#888">vs GONUM GC CHURN</text>
  <text x="800" y="78" text-anchor="middle" font-size="17" font-weight="bold" fill="#fb923c">750× less</text>

  <!-- Chart -->
  <line x1="80" y1="110" x2="80" y2="450" stroke="#444"/>
  <text x="40" y="120" font-size="9" fill="#fb923c" text-anchor="middle">70</text>
  <text x="40" y="195" font-size="9" fill="#fb923c" text-anchor="middle">20</text>
  <text x="40" y="280" font-size="9" fill="#fb923c" text-anchor="middle">7</text>
  <text x="40" y="340" font-size="9" fill="#fb923c" text-anchor="middle">5</text>
  <text x="40" y="458" font-size="9" fill="#fb923c" text-anchor="middle">ms</text>

  <line x1="860" y1="110" x2="860" y2="450" stroke="#444"/>
  <text x="885" y="450" font-size="9" fill="#60a5fa" text-anchor="middle">0×</text>
  <text x="885" y="360" font-size="9" fill="#60a5fa" text-anchor="middle">4×</text>
  <text x="885" y="270" font-size="9" fill="#60a5fa" text-anchor="middle">8×</text>
  <text x="885" y="180" font-size="9" fill="#60a5fa" text-anchor="middle">12×</text>

  <line x1="80" y1="118" x2="860" y2="118" stroke="#333" stroke-width="0.5" stroke-dasharray="4,4"/>
  <line x1="80" y1="195" x2="860" y2="195" stroke="#333" stroke-width="0.5" stroke-dasharray="4,4"/>
  <line x1="80" y1="280" x2="860" y2="280" stroke="#333" stroke-width="0.5" stroke-dasharray="4,4"/>
  <line x1="80" y1="340" x2="860" y2="340" stroke="#333" stroke-width="0.5" stroke-dasharray="4,4"/>
  <line x1="80" y1="450" x2="860" y2="450" stroke="#444"/>

  <!-- amd64 stages -->
  <rect x="95" y="118" width="42" height="332" rx="3" fill="url(#g1)" opacity="0.9"/>
  <text x="116" y="112" text-anchor="middle" font-size="9" font-weight="bold" fill="#fb923c">67.4</text>
  <rect x="147" y="126" width="42" height="324" rx="3" fill="url(#g1)" opacity="0.7"/>
  <text x="168" y="120" text-anchor="middle" font-size="8" fill="#f59e0b">63.4</text>
  <rect x="199" y="278" width="42" height="172" rx="3" fill="url(#g2)" opacity="0.9"/>
  <text x="220" y="272" text-anchor="middle" font-size="9" font-weight="bold" fill="#4ade80">7.4</text>
  <rect x="251" y="280" width="42" height="170" rx="3" fill="url(#g2)" opacity="0.8"/>
  <text x="272" y="274" text-anchor="middle" font-size="8" fill="#4ade80">7.3</text>
  <rect x="303" y="292" width="42" height="158" rx="3" fill="url(#g2)" opacity="0.7"/>
  <text x="324" y="286" text-anchor="middle" font-size="8" fill="#34d399">6.6</text>
  <rect x="355" y="298" width="42" height="152" rx="3" fill="url(#g2)" opacity="0.65"/>
  <text x="376" y="292" text-anchor="middle" font-size="8" fill="#34d399">6.3</text>
  <rect x="407" y="318" width="42" height="132" rx="3" fill="url(#g3)" opacity="0.9"/>
  <text x="428" y="312" text-anchor="middle" font-size="9" font-weight="bold" fill="#22d3ee">5.5</text>

  <line x1="465" y1="110" x2="465" y2="460" stroke="#444" stroke-dasharray="2,4"/>

  <!-- Finals -->
  <rect x="485" y="256" width="58" height="194" rx="3" fill="url(#g4)" opacity="0.9"/>
  <text x="514" y="250" text-anchor="middle" font-size="9" font-weight="bold" fill="#a78bfa">10</text>
  <text x="514" y="465" text-anchor="middle" font-size="8" fill="#a78bfa">Gather</text>
  <text x="514" y="476" text-anchor="middle" font-size="7" fill="#666">amd64</text>

  <rect x="555" y="318" width="58" height="132" rx="3" fill="url(#g3)" opacity="0.95"/>
  <text x="584" y="312" text-anchor="middle" font-size="9" font-weight="bold" fill="#22d3ee">5.5</text>
  <text x="584" y="465" text-anchor="middle" font-size="8" fill="#22d3ee">OpenBLAS</text>
  <text x="584" y="476" text-anchor="middle" font-size="7" fill="#666">amd64</text>

  <rect x="635" y="195" width="58" height="255" rx="3" fill="url(#g4)" opacity="0.8"/>
  <text x="664" y="189" text-anchor="middle" font-size="9" font-weight="bold" fill="#a78bfa">20</text>
  <text x="664" y="465" text-anchor="middle" font-size="8" fill="#a78bfa">GEBP NEON</text>
  <text x="664" y="476" text-anchor="middle" font-size="7" fill="#666">arm64</text>

  <rect x="710" y="220" width="58" height="230" rx="3" fill="url(#g3)" opacity="0.7"/>
  <text x="739" y="214" text-anchor="middle" font-size="9" font-weight="bold" fill="#22d3ee">14</text>
  <text x="739" y="465" text-anchor="middle" font-size="8" fill="#22d3ee">OpenBLAS</text>
  <text x="739" y="476" text-anchor="middle" font-size="7" fill="#666">arm64</text>

  <rect x="785" y="118" width="58" height="332" rx="3" fill="url(#g1)" opacity="0.35"/>
  <text x="814" y="112" text-anchor="middle" font-size="9" fill="#fb923c">104</text>
  <text x="814" y="465" text-anchor="middle" font-size="8" fill="#fb923c">gonum</text>
  <text x="814" y="476" text-anchor="middle" font-size="7" fill="#666">arm64 base</text>

  <!-- Speedup line -->
  <polyline fill="none" stroke="#60a5fa" stroke-width="2" stroke-linejoin="round"
    points="116,430 168,429 220,189 272,187 324,178 376,174 428,162"/>
  <circle cx="116" cy="430" r="3" fill="#60a5fa"/>
  <circle cx="220" cy="189" r="4" fill="#60a5fa"/>
  <circle cx="428" cy="162" r="4" fill="#60a5fa"/>
  <text x="116" y="422" text-anchor="middle" font-size="7" fill="#60a5fa">1.0×</text>
  <text x="220" y="181" text-anchor="middle" font-size="7" font-weight="bold" fill="#60a5fa">9.1×</text>
  <text x="428" y="154" text-anchor="middle" font-size="7" font-weight="bold" fill="#60a5fa">12.3×</text>

  <!-- Brackets -->
  <line x1="480" y1="488" x2="620" y2="488" stroke="#555"/>
  <text x="550" y="500" text-anchor="middle" font-size="7" fill="#777">amd64</text>
  <line x1="625" y1="488" x2="850" y2="488" stroke="#555"/>
  <text x="737" y="500" text-anchor="middle" font-size="7" fill="#777">arm64</text>

  <!-- X labels -->
  <text x="116" y="465" text-anchor="middle" font-size="7" fill="#aaa">Base</text>
  <text x="168" y="465" text-anchor="middle" font-size="7" fill="#aaa">P1a</text>
  <text x="220" y="465" text-anchor="middle" font-size="7" fill="#aaa">P1b</text>
  <text x="272" y="465" text-anchor="middle" font-size="7" fill="#aaa">P1c</text>
  <text x="324" y="465" text-anchor="middle" font-size="7" fill="#aaa">P2a</text>
  <text x="376" y="465" text-anchor="middle" font-size="7" fill="#aaa">P2b</text>
  <text x="428" y="465" text-anchor="middle" font-size="7" fill="#aaa">P3a</text>

  <!-- Legend -->
  <rect x="80" y="520" width="10" height="10" rx="2" fill="url(#g1)"/>
  <text x="95" y="530" font-size="8" fill="#ccc">ms/op</text>
  <line x1="125" y1="525" x2="147" y2="525" stroke="#60a5fa" stroke-width="2"/>
  <circle cx="136" cy="525" r="2.5" fill="#60a5fa"/>
  <text x="153" y="530" font-size="8" fill="#ccc">Speedup</text>
  <rect x="200" y="520" width="10" height="10" rx="2" fill="url(#g4)"/>
  <text x="215" y="530" font-size="8" fill="#ccc">Pure Go+SIMD (default)</text>
  <rect x="330" y="520" width="10" height="10" rx="2" fill="url(#g3)"/>
  <text x="345" y="530" font-size="8" fill="#ccc">OpenBLAS CGo (opt-in)</text>

  <text x="450" y="550" text-anchor="middle" font-size="7" fill="#555">amd64: i7-12700 4.7GHz · arm64: CIX P1 CD8160 2GHz · Go 1.26.2 · GTE-small (384d, 12L) · 12 allocs, 187B/embed</text>
</svg>
