<svg xmlns="http://www.w3.org/2000/svg" viewBox="0 0 900 560" font-family="-apple-system,Helvetica,Arial,sans-serif">
  <defs>
    <linearGradient id="g1" x1="0" y1="0" x2="0" y2="1"><stop offset="0%" stop-color="#fb923c"/><stop offset="100%" stop-color="#ea580c"/></linearGradient>
    <linearGradient id="g2" x1="0" y1="0" x2="0" y2="1"><stop offset="0%" stop-color="#4ade80"/><stop offset="100%" stop-color="#16a34a"/></linearGradient>
    <linearGradient id="g3" x1="0" y1="0" x2="0" y2="1"><stop offset="0%" stop-color="#22d3ee"/><stop offset="100%" stop-color="#0891b2"/></linearGradient>
    <linearGradient id="g4" x1="0" y1="0" x2="0" y2="1"><stop offset="0%" stop-color="#a78bfa"/><stop offset="100%" stop-color="#7c3aed"/></linearGradient>
  </defs>
<rect width="900" height="560" rx="12" fill="#1a1a2e"/>
<text x="450" y="30" text-anchor="middle" font-size="16" font-weight="bold" fill="#e0e0e0">GTE-Go: flat-latency embeddings — 1 alloc, zero GC pressure</text>
<rect x="20" y="44" width="128" height="46" rx="8" fill="#16213e"/>
<text x="84" y="60" text-anchor="middle" font-size="9" fill="#888">ALLOCS/EMBED</text>
<text x="84" y="78" text-anchor="middle" font-size="15" font-weight="bold" fill="#4ade80">1</text>
<rect x="160" y="44" width="128" height="46" rx="8" fill="#16213e"/>
<text x="224" y="60" text-anchor="middle" font-size="9" fill="#888">GC PRESSURE</text>
<text x="224" y="78" text-anchor="middle" font-size="15" font-weight="bold" fill="#4ade80">~700 B/s</text>
<rect x="300" y="44" width="128" height="46" rx="8" fill="#16213e"/>
<text x="364" y="60" text-anchor="middle" font-size="9" fill="#888">GOROUTINES</text>
<text x="364" y="78" text-anchor="middle" font-size="15" font-weight="bold" fill="#4ade80">0</text>
<rect x="440" y="44" width="128" height="46" rx="8" fill="#16213e"/>
<text x="504" y="60" text-anchor="middle" font-size="9" fill="#888">AMD64</text>
<text x="504" y="78" text-anchor="middle" font-size="15" font-weight="bold" fill="#a78bfa">10 ms</text>
<rect x="580" y="44" width="128" height="46" rx="8" fill="#16213e"/>
<text x="644" y="60" text-anchor="middle" font-size="9" fill="#888">ARM64</text>
<text x="644" y="78" text-anchor="middle" font-size="15" font-weight="bold" fill="#a78bfa">20 ms</text>
<rect x="736" y="44" width="128" height="46" rx="8" fill="#16213e"/>
<text x="800" y="60" text-anchor="middle" font-size="9" fill="#888">vs GONUM</text>
<text x="800" y="78" text-anchor="middle" font-size="15" font-weight="bold" fill="#fb923c">10,000× less</text>
<line x1="70" y1="490.0" x2="870" y2="490.0" stroke="#333" stroke-width="0.5" stroke-dasharray="4,4"/>
<text x="62" y="493.0" text-anchor="end" font-size="8" fill="#888">0</text>
<line x1="70" y1="454.54545454545456" x2="870" y2="454.54545454545456" stroke="#333" stroke-width="0.5" stroke-dasharray="4,4"/>
<line x1="70" y1="419.0909090909091" x2="870" y2="419.0909090909091" stroke="#333" stroke-width="0.5" stroke-dasharray="4,4"/>
<text x="62" y="422.0909090909091" text-anchor="end" font-size="8" fill="#888">20</text>
<line x1="70" y1="383.6363636363636" x2="870" y2="383.6363636363636" stroke="#333" stroke-width="0.5" stroke-dasharray="4,4"/>
<line x1="70" y1="348.1818181818182" x2="870" y2="348.1818181818182" stroke="#333" stroke-width="0.5" stroke-dasharray="4,4"/>
<text x="62" y="351.1818181818182" text-anchor="end" font-size="8" fill="#888">40</text>
<line x1="70" y1="312.72727272727275" x2="870" y2="312.72727272727275" stroke="#333" stroke-width="0.5" stroke-dasharray="4,4"/>
<line x1="70" y1="277.27272727272725" x2="870" y2="277.27272727272725" stroke="#333" stroke-width="0.5" stroke-dasharray="4,4"/>
<text x="62" y="280.27272727272725" text-anchor="end" font-size="8" fill="#888">60</text>
<line x1="70" y1="241.8181818181818" x2="870" y2="241.8181818181818" stroke="#333" stroke-width="0.5" stroke-dasharray="4,4"/>
<line x1="70" y1="206.36363636363637" x2="870" y2="206.36363636363637" stroke="#333" stroke-width="0.5" stroke-dasharray="4,4"/>
<text x="62" y="209.36363636363637" text-anchor="end" font-size="8" fill="#888">80</text>
<line x1="70" y1="170.90909090909088" x2="870" y2="170.90909090909088" stroke="#333" stroke-width="0.5" stroke-dasharray="4,4"/>
<line x1="70" y1="135.45454545454544" x2="870" y2="135.45454545454544" stroke="#333" stroke-width="0.5" stroke-dasharray="4,4"/>
<text x="62" y="138.45454545454544" text-anchor="end" font-size="8" fill="#888">100</text>
<line x1="70" y1="100.0" x2="870" y2="100.0" stroke="#333" stroke-width="0.5" stroke-dasharray="4,4"/>
<text x="30" y="295" text-anchor="middle" font-size="9" fill="#888" transform="rotate(-90,30,295)">ms/embed</text>
<line x1="533.0" y1="100" x2="533.0" y2="500" stroke="#444" stroke-dasharray="2,4"/>
<rect x="95.2" y="251.0" width="44.4" height="239.0" rx="3" fill="url(#g1)" opacity="0.9"/>
<text x="117.4" y="246.0" text-anchor="middle" font-size="8" font-weight="bold" fill="#ccc">67.4</text>
<text x="117.4" y="505" text-anchor="middle" font-size="7" fill="#aaa">Base</text>
<rect x="154.4" y="265.2" width="44.4" height="224.8" rx="3" fill="url(#g1)" opacity="0.7"/>
<text x="176.7" y="260.2" text-anchor="middle" font-size="8" font-weight="bold" fill="#ccc">63.4</text>
<text x="176.7" y="505" text-anchor="middle" font-size="7" fill="#aaa">P1a</text>
<rect x="213.7" y="463.8" width="44.4" height="26.2" rx="3" fill="url(#g2)" opacity="0.9"/>
<text x="235.9" y="458.8" text-anchor="middle" font-size="8" font-weight="bold" fill="#ccc">7.4</text>
<text x="235.9" y="505" text-anchor="middle" font-size="7" fill="#aaa">P1b</text>
<rect x="273.0" y="464.1" width="44.4" height="25.9" rx="3" fill="url(#g2)" opacity="0.8"/>
<text x="295.2" y="459.1" text-anchor="middle" font-size="8" font-weight="bold" fill="#ccc">7.3</text>
<text x="295.2" y="505" text-anchor="middle" font-size="7" fill="#aaa">P1c</text>
<rect x="332.2" y="466.6" width="44.4" height="23.4" rx="3" fill="url(#g2)" opacity="0.7"/>
<text x="354.4" y="461.6" text-anchor="middle" font-size="8" font-weight="bold" fill="#ccc">6.6</text>
<text x="354.4" y="505" text-anchor="middle" font-size="7" fill="#aaa">P2a</text>
<rect x="391.5" y="467.7" width="44.4" height="22.3" rx="3" fill="url(#g2)" opacity="0.65"/>
<text x="413.7" y="462.7" text-anchor="middle" font-size="8" font-weight="bold" fill="#ccc">6.3</text>
<text x="413.7" y="505" text-anchor="middle" font-size="7" fill="#aaa">P2b</text>
<rect x="450.7" y="470.5" width="44.4" height="19.5" rx="3" fill="url(#g3)" opacity="0.9"/>
<text x="473.0" y="465.5" text-anchor="middle" font-size="8" font-weight="bold" fill="#ccc">5.5</text>
<text x="473.0" y="505" text-anchor="middle" font-size="7" fill="#aaa">P3a</text>
<rect x="551.5" y="454.5" width="44.4" height="35.5" rx="3" fill="url(#g4)" opacity="0.9"/>
<text x="573.7" y="449.5" text-anchor="middle" font-size="8" font-weight="bold" fill="#ccc">10</text>
<text x="573.7" y="505" text-anchor="middle" font-size="7" fill="#aaa">Gather</text>
<text x="573.7" y="515" text-anchor="middle" font-size="7" fill="#666">amd64</text>
<rect x="610.7" y="470.5" width="44.4" height="19.5" rx="3" fill="url(#g3)" opacity="0.95"/>
<text x="633.0" y="465.5" text-anchor="middle" font-size="8" font-weight="bold" fill="#ccc">5.5</text>
<text x="633.0" y="505" text-anchor="middle" font-size="7" fill="#aaa">OpenBLAS</text>
<text x="633.0" y="515" text-anchor="middle" font-size="7" fill="#666">amd64</text>
<rect x="670.0" y="419.1" width="44.4" height="70.9" rx="3" fill="url(#g4)" opacity="0.8"/>
<text x="692.2" y="414.1" text-anchor="middle" font-size="8" font-weight="bold" fill="#ccc">20</text>
<text x="692.2" y="505" text-anchor="middle" font-size="7" fill="#aaa">GEBP NEON</text>
<text x="692.2" y="515" text-anchor="middle" font-size="7" fill="#666">arm64</text>
<rect x="729.3" y="440.4" width="44.4" height="49.6" rx="3" fill="url(#g3)" opacity="0.7"/>
<text x="751.5" y="435.4" text-anchor="middle" font-size="8" font-weight="bold" fill="#ccc">14</text>
<text x="751.5" y="505" text-anchor="middle" font-size="7" fill="#aaa">OpenBLAS</text>
<text x="751.5" y="515" text-anchor="middle" font-size="7" fill="#666">arm64</text>
<rect x="788.5" y="121.3" width="44.4" height="368.7" rx="3" fill="url(#g1)" opacity="0.35"/>
<text x="810.7" y="116.3" text-anchor="middle" font-size="8" font-weight="bold" fill="#ccc">104</text>
<text x="810.7" y="505" text-anchor="middle" font-size="7" fill="#aaa">gonum</text>
<text x="810.7" y="515" text-anchor="middle" font-size="7" fill="#666">arm64 base</text>
<polyline points="117.4,460.0 176.7,458.2 235.9,217.0 295.2,214.0 354.4,184.0 413.7,169.0 473.0,121.0" fill="none" stroke="#60a5fa" stroke-width="2" stroke-linejoin="round"/>
<circle cx="117.4" cy="460.0" r="3" fill="#60a5fa"/>
<text x="117.4" y="452.0" text-anchor="middle" font-size="7" font-weight="bold" fill="#60a5fa">1.0×</text>
<circle cx="176.7" cy="458.2" r="3" fill="#60a5fa"/>
<circle cx="235.9" cy="217.0" r="3" fill="#60a5fa"/>
<text x="235.9" y="209.0" text-anchor="middle" font-size="7" font-weight="bold" fill="#60a5fa">9.1×</text>
<circle cx="295.2" cy="214.0" r="3" fill="#60a5fa"/>
<circle cx="354.4" cy="184.0" r="3" fill="#60a5fa"/>
<circle cx="413.7" cy="169.0" r="3" fill="#60a5fa"/>
<circle cx="473.0" cy="121.0" r="3" fill="#60a5fa"/>
<text x="473.0" y="113.0" text-anchor="middle" font-size="7" font-weight="bold" fill="#60a5fa">12.3×</text>
<text x="878" y="490" font-size="7" fill="#60a5fa">0×</text>
<text x="878" y="295.0" font-size="7" fill="#60a5fa">6.5×</text>
<text x="878" y="100" font-size="7" fill="#60a5fa">13×</text>
<rect x="70" y="515" width="10" height="10" rx="2" fill="url(#g4)"/>
<text x="85" y="524" font-size="8" fill="#ccc">Pure Go+SIMD</text>
<rect x="180" y="515" width="10" height="10" rx="2" fill="url(#g3)"/>
<text x="195" y="524" font-size="8" fill="#ccc">OpenBLAS CGo</text>
<line x1="290" y1="520" x2="310" y2="520" stroke="#60a5fa" stroke-width="2"/>
<circle cx="300" cy="520" r="2.5" fill="#60a5fa"/>
<text x="315" y="524" font-size="8" fill="#ccc">Speedup (right axis)</text>
<text x="450" y="548" text-anchor="middle" font-size="7" fill="#555">amd64: i7-12700 4.7GHz · arm64: CIX P1 CD8160 2GHz · Go 1.26.2 · GTE-small (384d, 12L) · linear scale</text>
</svg>