<svg xmlns="http://www.w3.org/2000/svg" width="750" height="574" viewBox="0 0 750 574">
<style>
:root{color-scheme:light dark;--bg:#f8f9fc;--text:#1a1f36;--muted:#6b7394;--bar1:#e2e8f0;--bar2:#22c55e;--border:#e5e7eb}
@media(prefers-color-scheme:dark){:root{--bg:#0d1117;--text:#e6edf3;--muted:#8b949e;--bar1:#1e293b;--bar2:#4ade80;--border:#30363d}}
svg{background:var(--bg);font-family:Inter,system-ui,sans-serif}
.title{fill:var(--text);font-size:16px;font-weight:700}
.subtitle{fill:var(--muted);font-size:10px}
.name{fill:var(--text);font-size:11px;font-weight:500}
.before{fill:var(--muted);font-size:10px}
.after{fill:var(--text);font-size:10px;font-weight:600}
.delta{fill:var(--text);font-size:11px;font-weight:700}
.bar-bg{fill:var(--bar1);rx:3}
.bar-fg{fill:var(--bar2);rx:3}
.arrow{fill:var(--muted);font-size:10px}
</style>
<text class="title" x="15" y="22">Speedup vs Original Joker</text><text class="subtitle" x="15" y="38">Before → After (ms) · bar shows improvement factor (log scale)</text><text class="before" x="130" y="52">Before</text><text class="before" x="195" y="52">After</text><text class="before" x="380" y="52">Speedup</text><text class="name" x="15" y="83">arith-loop</text><text class="before" x="130" y="83">190ms</text><text class="arrow" x="175" y="83">→</text><text class="after" x="195" y="83">0.237ms</text><rect class="bar-bg" x="250" y="70" width="320" height="18"/><rect class="bar-fg" x="250" y="70" width="314" height="18"/><text class="delta" x="580" y="83">801×</text><text class="name" x="15" y="121">rec-fib</text><text class="before" x="130" y="121">546ms</text><text class="arrow" x="175" y="121">→</text><text class="after" x="195" y="121">0.959ms</text><rect class="bar-bg" x="250" y="108" width="320" height="18"/><rect class="bar-fg" x="250" y="108" width="298" height="18"/><text class="delta" x="580" y="121">569×</text><text class="name" x="15" y="159">mandelbrot</text><text class="before" x="130" y="159">159ms</text><text class="arrow" x="175" y="159">→</text><text class="after" x="195" y="159">3.97ms</text><rect class="bar-bg" x="250" y="146" width="320" height="18"/><rect class="bar-fg" x="250" y="146" width="173" height="18"/><text class="delta" x="580" y="159">40×</text><text class="name" x="15" y="197">word-frequency</text><text class="before" x="130" y="197">280ms</text><text class="arrow" x="175" y="197">→</text><text class="after" x="195" y="197">13.6ms</text><rect class="bar-bg" x="250" y="184" width="320" height="18"/><rect class="bar-fg" x="250" y="184" width="142" height="18"/><text class="delta" x="580" y="197">21×</text><text class="name" x="15" y="235">n-body</text><text class="before" x="130" y="235">34.2ms</text><text class="arrow" x="175" y="235">→</text><text class="after" x="195" y="235">1.76ms</text><rect class="bar-bg" x="250" y="222" width="320" height="18"/><rect class="bar-fg" x="250" y="222" width="139" height="18"/><text class="delta" x="580" y="235">19×</text><text class="name" x="15" y="273">binary-trees</text><text class="before" x="130" y="273">528ms</text><text class="arrow" x="175" y="273">→</text><text class="after" x="195" y="273">78.3ms</text><rect class="bar-bg" x="250" y="260" width="320" height="18"/><rect class="bar-fg" x="250" y="260" width="89" height="18"/><text class="delta" x="580" y="273">6.7×</text><text class="name" x="15" y="311">pidigits</text><text class="before" x="130" y="311">0.100ms</text><text class="arrow" x="175" y="311">→</text><text class="after" x="195" y="311">0.016ms</text><rect class="bar-bg" x="250" y="298" width="320" height="18"/><rect class="bar-fg" x="250" y="298" width="86" height="18"/><text class="delta" x="580" y="311">6.2×</text><text class="name" x="15" y="349">spectral-norm</text><text class="before" x="130" y="349">70.0ms</text><text class="arrow" x="175" y="349">→</text><text class="after" x="195" y="349">17.4ms</text><rect class="bar-bg" x="250" y="336" width="320" height="18"/><rect class="bar-fg" x="250" y="336" width="65" height="18"/><text class="delta" x="580" y="349">4.0×</text><text class="name" x="15" y="387">fasta</text><text class="before" x="130" y="387">0.220ms</text><text class="arrow" x="175" y="387">→</text><text class="after" x="195" y="387">0.066ms</text><rect class="bar-bg" x="250" y="374" width="320" height="18"/><rect class="bar-fg" x="250" y="374" width="56" height="18"/><text class="delta" x="580" y="387">3.3×</text><text class="name" x="15" y="425">fannkuch</text><text class="before" x="130" y="425">94.1ms</text><text class="arrow" x="175" y="425">→</text><text class="after" x="195" y="425">33.7ms</text><rect class="bar-bg" x="250" y="412" width="320" height="18"/><rect class="bar-fg" x="250" y="412" width="48" height="18"/><text class="delta" x="580" y="425">2.8×</text><text class="name" x="15" y="463">rev-complement</text><text class="before" x="130" y="463">0.082ms</text><text class="arrow" x="175" y="463">→</text><text class="after" x="195" y="463">0.043ms</text><rect class="bar-bg" x="250" y="450" width="320" height="18"/><rect class="bar-fg" x="250" y="450" width="30" height="18"/><text class="delta" x="580" y="463">1.9×</text><text class="name" x="15" y="501">knucleotide</text><text class="before" x="130" y="501">0.410ms</text><text class="arrow" x="175" y="501">→</text><text class="after" x="195" y="501">0.251ms</text><rect class="bar-bg" x="250" y="488" width="320" height="18"/><rect class="bar-fg" x="250" y="488" width="23" height="18"/><text class="delta" x="580" y="501">1.6×</text><text class="name" x="15" y="539">regex-redux</text><text class="before" x="130" y="539">0.120ms</text><text class="arrow" x="175" y="539">→</text><text class="after" x="195" y="539">0.083ms</text><rect class="bar-bg" x="250" y="526" width="320" height="18"/><rect class="bar-fg" x="250" y="526" width="17" height="18"/><text class="delta" x="580" y="539">1.4×</text></svg>