<svg xmlns="http://www.w3.org/2000/svg" width="1200" height="1150" viewBox="0 0 1200 1150">
<style>
:root { color-scheme: light dark; --bg:#f6f8fc;--panel:#fff;--row:#f0f4fb;--track:#dfe7f5;--border:#c7d3ea;--text:#172033;--muted:#55627c;--win:#23a566;--close:#f5a623;--gap:#e04848;--baseline:#7f93b8; }
@media(prefers-color-scheme:dark){:root{--bg:#0b1020;--panel:#11182b;--row:#0f1728;--track:#1c2740;--border:#25324f;--text:#e3ecff;--muted:#9db0d6;--win:#37c67e;--close:#f5a623;--gap:#f06060;--baseline:#7288b3;}}
svg{background:var(--bg)}.panel{fill:var(--panel);stroke:var(--border)}.row{fill:var(--row);stroke:var(--border)}.track{fill:var(--track)}.baseline{fill:var(--baseline)}.win{fill:var(--win)}.close{fill:var(--close)}.gap{fill:var(--gap)}
.text{fill:var(--text);font-family:Inter,system-ui,sans-serif}.muted{fill:var(--muted);font-family:Inter,system-ui,sans-serif}
.title{font-size:22px;font-weight:700}.subtitle{font-size:12px;font-weight:500}.label{font-size:12px;font-weight:600}.small{font-size:11px;font-weight:500}.tiny{font-size:10px}
</style>
<rect x="0" y="0" width="1200" height="1150" fill="var(--bg)"/><rect class="panel" x="20" y="20" width="1160" height="1110" rx="14"/><text class="text title" x="40" y="56">Joker benchmark improvements</text><text class="muted subtitle" x="40" y="76">Generated from benchmark-history.json • Host: 12th Gen Intel(R) Core(TM) i7-12700</text><g transform="translate(32,100)"><rect class="row" x="0" y="0" width="1136" height="54" rx="8"/><text class="text label" x="10" y="20">arithmetic loop</text><text class="muted small" x="10" y="40">0.2 ms</text><rect class="track" x="180" y="10" width="600" height="14" rx="5"/><rect class="baseline" x="180" y="10" width="600" height="14" rx="5"/><rect class="win" x="180" y="28" width="10" height="14" rx="5"/><text class="muted tiny" x="800" y="20">baseline: 189.8 ms</text><text class="text label" x="800" y="40">-99.9% 🚀</text></g><g transform="translate(32,162)"><rect class="row" x="0" y="0" width="1136" height="54" rx="8"/><text class="text label" x="10" y="20">recursive fib</text><text class="muted small" x="10" y="40">1.0 ms</text><rect class="track" x="180" y="10" width="600" height="14" rx="5"/><rect class="baseline" x="180" y="10" width="600" height="14" rx="5"/><rect class="win" x="180" y="28" width="10" height="14" rx="5"/><text class="muted tiny" x="800" y="20">baseline: 546.0 ms</text><text class="text label" x="800" y="40">-99.8% 🚀</text></g><g transform="translate(32,224)"><rect class="row" x="0" y="0" width="1136" height="54" rx="8"/><text class="text label" x="10" y="20">word frequency</text><text class="muted small" x="10" y="40">13.6 ms</text><rect class="track" x="180" y="10" width="600" height="14" rx="5"/><rect class="baseline" x="180" y="10" width="600" height="14" rx="5"/><rect class="win" x="180" y="28" width="29" height="14" rx="5"/><text class="muted tiny" x="800" y="20">baseline: 279.9 ms</text><text class="text label" x="800" y="40">-95.1% 🚀</text></g><g transform="translate(32,286)"><rect class="row" x="0" y="0" width="1136" height="54" rx="8"/><text class="text label" x="10" y="20">map update loop</text><text class="muted small" x="10" y="40">0.7 ms</text></g><g transform="translate(32,348)"><rect class="row" x="0" y="0" width="1136" height="54" rx="8"/><text class="text label" x="10" y="20">tail recursive sum</text><text class="muted small" x="10" y="40">0.1 ms</text><rect class="track" x="180" y="18" width="600" height="14" rx="5"/><rect class="win" x="180" y="18" width="0" height="14" rx="5"/><text class="muted tiny" x="800" y="22">Goja: 28.00 ms</text><text class="text label" x="800" y="40">451.6× faster ✅</text></g><g transform="translate(32,410)"><rect class="row" x="0" y="0" width="1136" height="54" rx="8"/><text class="text label" x="10" y="20">mandelbrot</text><text class="muted small" x="10" y="40">4.0 ms</text><rect class="track" x="180" y="18" width="600" height="14" rx="5"/><rect class="win" x="180" y="18" width="9" height="14" rx="5"/><text class="muted tiny" x="800" y="22">Goja: 39.00 ms</text><text class="text label" x="800" y="40">9.8× faster ✅</text></g><g transform="translate(32,472)"><rect class="row" x="0" y="0" width="1136" height="54" rx="8"/><text class="text label" x="10" y="20">pidigits</text><text class="muted small" x="10" y="40">0.0 ms</text><rect class="track" x="180" y="18" width="600" height="14" rx="5"/><rect class="win" x="180" y="18" width="9" height="14" rx="5"/><text class="muted tiny" x="800" y="22">Goja: 0.15 ms</text><text class="text label" x="800" y="40">9.4× faster ✅</text></g><g transform="translate(32,534)"><rect class="row" x="0" y="0" width="1136" height="54" rx="8"/><text class="text label" x="10" y="20">fasta</text><text class="muted small" x="10" y="40">0.1 ms</text><rect class="track" x="180" y="18" width="600" height="14" rx="5"/><rect class="win" x="180" y="18" width="9" height="14" rx="5"/><text class="muted tiny" x="800" y="22">Goja: 0.60 ms</text><text class="text label" x="800" y="40">9.1× faster ✅</text></g><g transform="translate(32,596)"><rect class="row" x="0" y="0" width="1136" height="54" rx="8"/><text class="text label" x="10" y="20">spectral norm</text><text class="muted small" x="10" y="40">17.4 ms</text><rect class="track" x="180" y="18" width="600" height="14" rx="5"/><rect class="win" x="180" y="18" width="23" height="14" rx="5"/><text class="muted tiny" x="800" y="22">Goja: 65.00 ms</text><text class="text label" x="800" y="40">3.7× faster ✅</text></g><g transform="translate(32,658)"><rect class="row" x="0" y="0" width="1136" height="54" rx="8"/><text class="text label" x="10" y="20">reverse complement</text><text class="muted small" x="10" y="40">0.0 ms</text><rect class="track" x="180" y="18" width="600" height="14" rx="5"/><rect class="win" x="180" y="18" width="28" height="14" rx="5"/><text class="muted tiny" x="800" y="22">Goja: 0.13 ms</text><text class="text label" x="800" y="40">3.0× faster ✅</text></g><g transform="translate(32,720)"><rect class="row" x="0" y="0" width="1136" height="54" rx="8"/><text class="text label" x="10" y="20">nbody</text><text class="muted small" x="10" y="40">1.8 ms</text><rect class="track" x="180" y="18" width="600" height="14" rx="5"/><rect class="win" x="180" y="18" width="32" height="14" rx="5"/><text class="muted tiny" x="800" y="22">Goja: 4.75 ms</text><text class="text label" x="800" y="40">2.7× faster ✅</text></g><g transform="translate(32,782)"><rect class="row" x="0" y="0" width="1136" height="54" rx="8"/><text class="text label" x="10" y="20">binary trees</text><text class="muted small" x="10" y="40">78.3 ms</text><rect class="track" x="180" y="18" width="600" height="14" rx="5"/><rect class="win" x="180" y="18" width="39" height="14" rx="5"/><text class="muted tiny" x="800" y="22">Goja: 172.00 ms</text><text class="text label" x="800" y="40">2.2× faster ✅</text></g><g transform="translate(32,844)"><rect class="row" x="0" y="0" width="1136" height="54" rx="8"/><text class="text label" x="10" y="20">knucleotide</text><text class="muted small" x="10" y="40">0.3 ms</text><rect class="track" x="180" y="18" width="600" height="14" rx="5"/><rect class="win" x="180" y="18" width="45" height="14" rx="5"/><text class="muted tiny" x="800" y="22">Goja: 0.48 ms</text><text class="text label" x="800" y="40">1.9× faster ✅</text></g><g transform="translate(32,906)"><rect class="row" x="0" y="0" width="1136" height="54" rx="8"/><text class="text label" x="10" y="20">regex redux</text><text class="muted small" x="10" y="40">0.1 ms</text><rect class="track" x="180" y="18" width="600" height="14" rx="5"/><rect class="win" x="180" y="18" width="51" height="14" rx="5"/><text class="muted tiny" x="800" y="22">Goja: 0.14 ms</text><text class="text label" x="800" y="40">1.7× faster ✅</text></g><g transform="translate(32,968)"><rect class="row" x="0" y="0" width="1136" height="54" rx="8"/><text class="text label" x="10" y="20">fannkuch</text><text class="muted small" x="10" y="40">33.7 ms</text><rect class="track" x="180" y="18" width="600" height="14" rx="5"/><rect class="close" x="180" y="18" width="120" height="14" rx="5"/><text class="muted tiny" x="800" y="22">Goja: 24.00 ms</text><text class="text label" x="800" y="40">1.4× vs Goja</text></g></svg>