<svg xmlns="http://www.w3.org/2000/svg" width="1200" height="716" viewBox="0 0 1200 716">
<style>
:root { color-scheme: light dark; --bg:#f6f8fc;--panel:#fff;--row:#f0f4fb;--track:#dfe7f5;--border:#c7d3ea;--text:#172033;--muted:#55627c;--win:#23a566;--close:#f5a623;--gap:#e04848;--baseline:#7f93b8; }
@media(prefers-color-scheme:dark){:root{--bg:#0b1020;--panel:#11182b;--row:#0f1728;--track:#1c2740;--border:#25324f;--text:#e3ecff;--muted:#9db0d6;--win:#37c67e;--close:#f5a623;--gap:#f06060;--baseline:#7288b3;}}
svg{background:var(--bg)}.panel{fill:var(--panel);stroke:var(--border)}.row{fill:var(--row);stroke:var(--border)}.track{fill:var(--track)}.baseline{fill:var(--baseline)}.win{fill:var(--win)}.close{fill:var(--close)}.gap{fill:var(--gap)}
.text{fill:var(--text);font-family:Inter,system-ui,sans-serif}.muted{fill:var(--muted);font-family:Inter,system-ui,sans-serif}
.title{font-size:22px;font-weight:700}.subtitle{font-size:12px;font-weight:500}.label{font-size:12px;font-weight:600}.small{font-size:11px;font-weight:500}.tiny{font-size:10px}
</style>
<rect x="0" y="0" width="1200" height="716" fill="var(--bg)"/><rect class="panel" x="20" y="20" width="1160" height="676" rx="14"/><text class="text title" x="40" y="56">Joker benchmark improvements</text><text class="muted subtitle" x="40" y="76">Generated from benchmark-history.json • Host: 12th Gen Intel(R) Core(TM) i7-12700</text><g transform="translate(32,100)"><rect class="row" x="0" y="0" width="1136" height="54" rx="8"/><text class="text label" x="10" y="20">word frequency</text><text class="muted small" x="10" y="40">9.0 ms</text><rect class="track" x="180" y="10" width="600" height="14" rx="5"/><rect class="baseline" x="180" y="10" width="600" height="14" rx="5"/><rect class="win" x="180" y="28" width="19" height="14" rx="5"/><text class="muted tiny" x="800" y="20">baseline: 279.9 ms</text><text class="text label" x="800" y="40">-96.8% 🚀</text></g><g transform="translate(32,162)"><rect class="row" x="0" y="0" width="1136" height="54" rx="8"/><text class="text label" x="10" y="20">arithmetic loop</text><text class="muted small" x="10" y="40">11.6 ms</text><rect class="track" x="180" y="10" width="600" height="14" rx="5"/><rect class="baseline" x="180" y="10" width="600" height="14" rx="5"/><rect class="win" x="180" y="28" width="37" height="14" rx="5"/><text class="muted tiny" x="800" y="20">baseline: 189.8 ms</text><text class="text label" x="800" y="40">-93.9% 🚀</text></g><g transform="translate(32,224)"><rect class="row" x="0" y="0" width="1136" height="54" rx="8"/><text class="text label" x="10" y="20">recursive fib</text><text class="muted small" x="10" y="40">84.5 ms</text><rect class="track" x="180" y="10" width="600" height="14" rx="5"/><rect class="baseline" x="180" y="10" width="600" height="14" rx="5"/><rect class="win" x="180" y="28" width="93" height="14" rx="5"/><text class="muted tiny" x="800" y="20">baseline: 546.0 ms</text><text class="text label" x="800" y="40">-84.5% 🚀</text></g><g transform="translate(32,286)"><rect class="row" x="0" y="0" width="1136" height="54" rx="8"/><text class="text label" x="10" y="20">map update loop</text><text class="muted small" x="10" y="40">14.2 ms</text></g><g transform="translate(32,348)"><rect class="row" x="0" y="0" width="1136" height="54" rx="8"/><text class="text label" x="10" y="20">clbg binary trees</text><text class="muted small" x="10" y="40">453.0 ms</text><rect class="track" x="180" y="18" width="600" height="14" rx="5"/><rect class="close" x="180" y="18" width="206" height="14" rx="5"/><text class="muted tiny" x="800" y="22">Goja: 188.05 ms</text><text class="text label" x="800" y="40">2.4× vs Goja</text></g><g transform="translate(32,410)"><rect class="row" x="0" y="0" width="1136" height="54" rx="8"/><text class="text label" x="10" y="20">clbg spectral norm</text><text class="muted small" x="10" y="40">263.8 ms</text><rect class="track" x="180" y="18" width="600" height="14" rx="5"/><rect class="close" x="180" y="18" width="271" height="14" rx="5"/><text class="muted tiny" x="800" y="22">Goja: 83.59 ms</text><text class="text label" x="800" y="40">3.2× vs Goja</text></g><g transform="translate(32,472)"><rect class="row" x="0" y="0" width="1136" height="54" rx="8"/><text class="text label" x="10" y="20">tail recursive sum</text><text class="muted small" x="10" y="40">65.5 ms</text><rect class="track" x="180" y="18" width="600" height="14" rx="5"/><rect class="gap" x="180" y="18" width="445" height="14" rx="5"/><text class="muted tiny" x="800" y="22">Goja: 12.61 ms</text><text class="text label" x="800" y="40">5.2× vs Goja</text></g><g transform="translate(32,534)"><rect class="row" x="0" y="0" width="1136" height="54" rx="8"/><text class="text label" x="10" y="20">clbg nbody</text><text class="muted small" x="10" y="40">25.5 ms</text><rect class="track" x="180" y="18" width="600" height="14" rx="5"/><rect class="gap" x="180" y="18" width="581" height="14" rx="5"/><text class="muted tiny" x="800" y="22">Goja: 3.76 ms</text><text class="text label" x="800" y="40">6.8× vs Goja</text></g></svg>