<svg xmlns="http://www.w3.org/2000/svg" viewBox="0 0 640 240" width="640" height="240">
  <style>
    @media (prefers-color-scheme: dark) {
      .bg { fill: #1a1e24; }
      .box { fill: #21262d; stroke: #30363d; }
      .box-accent { fill: #0d2340; stroke: #2b6cb0; }
      .box-green { fill: #0d2a1f; stroke: #2a7a3a; }
      .box-warm { fill: #2a1e18; stroke: #c87020; }
      .label { fill: #e8d8d0; }
      .sublabel { fill: #705848; }
      .arrow { stroke: #705848; }
      .arrow-accent { stroke: #2b6cb0; }
      .line { stroke: #30363d; }
    }
    @media (prefers-color-scheme: light) {
      .bg { fill: #f0f4fa; }
      .box { fill: #ffffff; stroke: #d0d7de; }
      .box-accent { fill: #dbeafe; stroke: #3b82f6; }
      .box-green { fill: #d1fae5; stroke: #059669; }
      .box-warm { fill: #fef3c7; stroke: #d97706; }
      .label { fill: #1a2a40; }
      .sublabel { fill: #4a6480; }
      .arrow { stroke: #90a8c0; }
      .arrow-accent { stroke: #3b82f6; }
      .line { stroke: #d0d7de; }
    }
    text { font-family: -apple-system, "Segoe UI", Helvetica, sans-serif; }
    .label { font-size: 13px; font-weight: 600; }
    .sublabel { font-size: 11px; }
    .arrow { stroke-width: 1.5; fill: none; marker-end: url(#arr); }
    .arrow-accent { stroke-width: 1.5; fill: none; marker-end: url(#arr-accent); }
    .line { stroke-width: 1; fill: none; }
  </style>
  <defs>
    <marker id="arr" markerWidth="8" markerHeight="8" refX="6" refY="3" orient="auto">
      <path d="M0,0 L0,6 L8,3 z" class="arrow" style="fill:currentColor;stroke:none"/>
    </marker>
    <marker id="arr-accent" markerWidth="8" markerHeight="8" refX="6" refY="3" orient="auto">
      <path d="M0,0 L0,6 L8,3 z" class="arrow-accent" style="fill:currentColor;stroke:none"/>
    </marker>
  </defs>
  <rect width="640" height="240" class="bg" rx="8"/>
  
  <rect x="20" y="80" width="120" height="52" rx="6" class="box-accent" stroke-width="1.5"/>
    <text x="80" y="102" text-anchor="middle" class="label">Developer</text>
    <text x="80" y="115" text-anchor="middle" class="sublabel">git push</text>
  <line x1="140" y1="106" x2="190" y2="106" class="arrow"/>
  <rect x="190" y="80" width="120" height="52" rx="6" class="box-accent" stroke-width="1.5"/>
    <text x="250" y="102" text-anchor="middle" class="label">piku hook</text>
    <text x="250" y="115" text-anchor="middle" class="sublabel">post-receive</text>
  <line x1="310" y1="106" x2="350" y2="106" class="arrow"/>
  <rect x="350" y="30" width="110" height="44" rx="6" class="box-green" stroke-width="1.5"/>
    <text x="405" y="48" text-anchor="middle" class="label">uwsgi</text>
    <text x="405" y="61" text-anchor="middle" class="sublabel">process mgr</text>
  <rect x="350" y="86" width="110" height="44" rx="6" class="box-green" stroke-width="1.5"/>
    <text x="405" y="104" text-anchor="middle" class="label">nginx</text>
    <text x="405" y="117" text-anchor="middle" class="sublabel">reverse proxy</text>
  <rect x="350" y="142" width="110" height="44" rx="6" class="box" stroke-width="1.5"/>
    <text x="405" y="160" text-anchor="middle" class="label">virtualenv</text>
    <text x="405" y="173" text-anchor="middle" class="sublabel">per-app deps</text>
  <line x1="460" y1="52" x2="510" y2="52" class="arrow"/>
  <line x1="460" y1="108" x2="510" y2="108" class="arrow"/>
  <line x1="460" y1="164" x2="510" y2="164" class="arrow"/>
  <rect x="510" y="30" width="110" height="44" rx="6" class="box" stroke-width="1.5"/>
    <text x="565" y="48" text-anchor="middle" class="label">App workers</text>
    <text x="565" y="61" text-anchor="middle" class="sublabel">Procfile</text>
  <rect x="510" y="86" width="110" height="44" rx="6" class="box" stroke-width="1.5"/>
    <text x="565" y="104" text-anchor="middle" class="label">TLS / vhosts</text>
    <text x="565" y="117" text-anchor="middle" class="sublabel">Let's Encrypt</text>
  <rect x="510" y="142" width="110" height="44" rx="6" class="box" stroke-width="1.5"/>
    <text x="565" y="160" text-anchor="middle" class="label">Python / Node / Go…</text>
    <text x="565" y="173" text-anchor="middle" class="sublabel">any language</text>
  <text x="320" y="220" text-anchor="middle" class="sublabel">Any POSIX host — Raspberry Pi to cloud VM</text>

</svg>